<svg xmlns="http://www.w3.org/2000/svg" width="280" height="341.27" viewBox="0 0 280 341.27"><defs><style>.cls-1{fill:#1b488d;}.cls-2{fill:#eff2fc;}.cls-3{fill:#2d7dca;}.cls-4{fill:#eef1fc;}.cls-5{fill:#cdd0d9;}.cls-6{fill:#2283ef;}.cls-7{fill:#2666ad;}.cls-8{fill:#323642;}.cls-9{fill:#ccd0d9;}.cls-10{fill:#fad103;}.cls-11{fill:#fdf118;}.cls-12{fill:#f8fafc;}.cls-13{fill:#3145a5;}.cls-14{fill:#a8a9b0;}.cls-15{fill:#fefefe;}.cls-16{fill:#58a0dc;}</style></defs><title>资源 4</title><g id="图层_2" data-name="图层 2"><g id="图层_1-2" data-name="图层 1"><g id="图层_2-2" data-name="图层 2"><g id="图层_1-2-2" data-name="图层 1-2"><path class="cls-1" d="M123.6,209.64a83.08,83.08,0,0,1-9.62-5.93c-11.43-8.5-19.9-19.46-26.67-31.88a114.22,114.22,0,0,1-11.63-34.25c-1.86-10.09-3.6-20.17-5-30.26a248.4,248.4,0,0,1-1.89-25.57c-.34-10.54-.25-21.08.33-31.61a187.76,187.76,0,0,1,3.59-30c1.44-6.57,4-9,10.65-10.09a41.49,41.49,0,0,1,22.88,3.15q8.47,3.65,16.92,7.38c1,.44,1.37.47,1.6-.79.65-3.56,1.46-7.1,2.27-10.62,1.44-6.3,6.52-9.8,13-9.1a21.17,21.17,0,0,1,6.76,2.18,106.33,106.33,0,0,1,21.68,14.11c3.09,2.52,6.3,4.76,9.57,7.11a56.74,56.74,0,0,0,14.14,6.86c8.48,3.12,17,6.1,24.95,10.49,14.66,8.13,26.48,19.34,34.39,34.23,4.7,8.83,6.39,18.65,6.49,28.65.06,6.5,0,13-.25,19.54a14,14,0,0,0,3.57,10.26,7.57,7.57,0,0,1,2.05,2.89c.14.52.63.38,1,.44,2.09.4,4.2.77,6.3,1.26a8.59,8.59,0,0,1,6.46,5.41,40.54,40.54,0,0,1,2.63,19.88,6.07,6.07,0,0,1-4.2,5.34,2.17,2.17,0,0,0-1.65,2.32,51.48,51.48,0,0,1-5.81,19.87,28.54,28.54,0,0,1-9.75,10.88c-14.63,10-30.43,17.08-48.19,19.3-1.77.23-3.54.47-5.32.66a2.31,2.31,0,0,0-1.6,1.06c-1.5,1.81-1.41,3.94-1.48,6a28.11,28.11,0,0,1-1.47,8.62,1.41,1.41,0,0,0,0,1.35,4.49,4.49,0,0,0,1.89-2.71c.38-1.26.68-2.59,1-3.88a5.76,5.76,0,0,1,5.53-4.62,12.4,12.4,0,0,0,6.3-1.85,6.22,6.22,0,0,1,7.75.2c2,1.46,4.19,2.6,6.09,4.25a12.33,12.33,0,0,1,4.55,11.08,32.43,32.43,0,0,1-5,14.63,15.38,15.38,0,0,1-4.95,5c-5.05,3-10.09,6-15.22,8.74a26.7,26.7,0,0,1-14.44,3.47,19.94,19.94,0,0,1-3.68-.55c-.72-.19-1.13,0-1.26.76a5.57,5.57,0,0,0-.19,1.46c.45,2.52-.81,4.59-1.68,6.8a55.81,55.81,0,0,0-1.52,5.85,7.16,7.16,0,0,0,1.26,6.45c2.09,3,4.08,6,6.24,8.92a39.52,39.52,0,0,0,9.91,8.95c2,1.37,4.33.92,6.49,1.26a5.51,5.51,0,0,1,3.22,1.38,4.32,4.32,0,0,1,.78,5.69c-3.38,5.22-7.29,10-12.82,13.08-6.07,3.42-12.25,6.61-19.22,7.8-4.49.77-8.17-.4-10.65-4.43a125,125,0,0,0-21.44-25.45c-.78-.73-1.09-.49-1.7.13-3.86,3.92-8.19,7.17-13.68,8.33a39.54,39.54,0,0,1-19.88-1,118.38,118.38,0,0,0-16.28-4.14,17.27,17.27,0,0,0-4.31,0A29.4,29.4,0,0,1,86,314.4c-2.31-.36-3.68-1.69-3.39-3.92.78-6,1.12-12.18,3.78-17.81a101.39,101.39,0,0,1,6.72-12.11c2.07-3.15,4.31-3.78,7.77-2.38,2.42,1,4.86,2,7.26,3.07a22.63,22.63,0,0,0,7.39,1.58c.86.08,1-.36,1.17-1,.57-2.61,1.19-5.22,1.69-7.86.4-2.07,1.54-4,1.26-6.2,0-.57.64-.85.92-1.26s.88-1.17-.38-1.34c-2.74-.34-4.38-2.15-5.61-4.42a12.31,12.31,0,0,1-1.43-5.44,73.18,73.18,0,0,1,.89-16.79c1.38-7.3,6-12.26,11.94-16.2.44-.29.9-.57,1.68-1.05a33.74,33.74,0,0,0-6.73.65,215,215,0,0,0-36.38,8.53,47,47,0,0,0-8,3.55c-8,4.4-16.64,6.72-25.53,8.19a75.53,75.53,0,0,1-33.77-2.32,43.52,43.52,0,0,0-11.44-1.77A5.54,5.54,0,0,1,0,232.74a.66.66,0,0,1,0-.14c-.22-3.49.67-6.24,3.58-8.29,1.34-.94,2.6-2,3.91-3,.55-.41.89-.71.22-1.36A2.24,2.24,0,0,1,7,217.28a2.66,2.66,0,0,1,2.52-1.34,6.52,6.52,0,0,1,2.37.14c5.56,1.84,11.29,1.51,17,1.26,17.45-.72,34.71-3.23,52-5.81a112.14,112.14,0,0,1,25.68-1.39C112.25,210.62,117.88,210,123.6,209.64Zm57.11,75,.38-.35a2.38,2.38,0,0,0,.67-2.43,26.56,26.56,0,0,1-.44-2.93c0-.51.17-1.06-.31-1.47h0a5.25,5.25,0,0,0-.29-2.69c.12-.75-.3-.89-.94-.95-3.78-.34-7.5-.73-11.25-1.11a1.89,1.89,0,0,0-1.75.54c-1.84,1.94-3.78,3.86-5.59,5.79a2.11,2.11,0,0,0-.73,2c.58,2.66,1.16,5.32,1.68,8,.14.74.48.95,1.2,1,3.72.11,7.44.26,11.14.4a.88.88,0,0,0,1.1-.11,20.37,20.37,0,0,0,4.84-5.38h0a.31.31,0,0,0,.32-.27v0Zm93.68-138.47h0c0-.26,0-.5-.31-.6h0c.14-1.63-1.81-3.78-3.56-4.13-1.32-.23-2.58-.66-3.89-.93a14.34,14.34,0,0,0-7.47-.12,16.93,16.93,0,0,0-7.89,5.86,4.58,4.58,0,0,0-.83,4.36,10.51,10.51,0,0,0,2.75,4.86c5.37,5.2,12,8.19,18.91,10.51,1.84.62,4-1.13,4.35-3a33.09,33.09,0,0,0-.09-8.89,19,19,0,0,0-1.45-6.46,1.15,1.15,0,0,1-.28-1ZM128.87,260.43a1.65,1.65,0,0,0-.71-.89c-.24-.19-.42-.64-.79-.46s-.42.61-.32,1a38.51,38.51,0,0,0-3.59,7.93,1.26,1.26,0,0,0,.51,1.45l2.73,2.28c8.82,6.72,18.42,11.84,29.83,12.61,1.34.1,1.4-.32,1.07-1.26-1.07-3-.06-5.41,2.23-7.43a5.25,5.25,0,0,0,1.48-1.73A66.09,66.09,0,0,1,130,261.22,1.6,1.6,0,0,0,128.87,260.43ZM187.29,233a97,97,0,0,0,8.83,8.61c.18-2.78,1.13-5,1.56-7.4.78-2,.55-4.11.8-6.39a34.37,34.37,0,0,1-13.34,2.69l-.19.42Zm63.23-117c.08,1,.27,2,.26,3.07A16.72,16.72,0,0,0,252,124.8a3.38,3.38,0,0,0,1.48,1.62c.59.39,1,.38,1-.51,0-2.17.15-4.34.23-6.51.16-4.8,0-9.61,0-14.41,0-1.88-.13-3.78-.15-5.64,0-1-.38-1.26-1.26-.68a6.74,6.74,0,0,0-3.39,5.13,55.1,55.1,0,0,0,.2,9.35C250.22,114,249.94,115.06,250.52,116ZM183.7,270.41a106.77,106.77,0,0,1-15.85-8.58l-3.45-2.34a66.86,66.86,0,0,1-13.87-12,2.86,2.86,0,0,1-.85-2.52c1.44-1.08,2-1,3.14.26s2.15,2.52,3.34,3.59A105.9,105.9,0,0,0,189,269.15a18.65,18.65,0,0,0,9.54.76c4.43-.62,8.19-2.92,12-5a2.2,2.2,0,0,0,1.4-2.06,10.08,10.08,0,0,0,1.44-6.41,22.08,22.08,0,0,0-2.32-6.89,16.23,16.23,0,0,0-7.82-7.26c-.78-.34-1.39-.33-1.88.49s-.92,1.17-1.26,1.82c-.94,1.71-1.74,2-3.49,1.06a24.6,24.6,0,0,1-5.67-4.32c-3.36-3.31-6.75-6.62-9.89-10.08a9.19,9.19,0,0,0-5.18-3.14,82.75,82.75,0,0,1-18.76-6.26,4,4,0,0,0-3.19-1.26c-3,0-6.07,0-9.09-.1-3.23,0-3.18,0-4.15,3-3.12,9.82-5.93,19.77-10.32,29.14-1.51,3.24-1.52,3.23,1.27,5.52h.13a14.5,14.5,0,0,0,1.26,1.07,61.63,61.63,0,0,0,29,11.35c1,0,2.1.82,3.07-.21a4,4,0,0,1,3.55-1.08c2,.21,4,.24,5.92.58,2.93.51,6.3-.34,8.65,2.27a6.73,6.73,0,0,1,.66,1c.47,1,1.19.59,1.69.21a1.56,1.56,0,0,0,0-2.22,1.73,1.73,0,0,0-.41-.3,6.6,6.6,0,0,1-1.48-.48Zm23.84-29.6.34.27.46.34.41.32h0c.24.25.47.5.72.74a20.63,20.63,0,0,1,7,19.13l2.52-1.69a4.64,4.64,0,0,0,1.76-1c3.56-1.72,5.44-4.81,6.86-8.31h.07v-.09l.23-.43a12.47,12.47,0,0,0,1.56-5,25,25,0,0,0,.59-3.65c.68-3.61-.74-6.3-3.4-8.68-1.66-1.45-3.64-2.42-5.36-3.79-2.17-1.66-3.95-1-5.81.26a13.08,13.08,0,0,0-1.91,1.65c-1.19,1.2-2.33,2.44-3.51,3.64a1.5,1.5,0,0,1-2.1.33,1.07,1.07,0,0,1-.16-.14,1.56,1.56,0,0,1-.17-2.2.27.27,0,0,1,.07-.08c.33-.45.69-.87,1.15-1.44a2.4,2.4,0,0,0-2.37,1.74c-.34,1.14-.62,2.3-.94,3.44-.84,3-.84,3,1.82,4.59a1.31,1.31,0,0,0,.28.09Zm-32.88,58.34h0c-.5.31-1,.61-1.5.94a24.42,24.42,0,0,1-17,4.41,4.39,4.39,0,0,0-4.6,2.06c-1,1.26-.77,1.83.28,2.82,7.1,6.74,14,13.68,19.2,22.06.92,1.47,1.92,2.9,2.95,4.3a5.06,5.06,0,0,0,5,2.28,7,7,0,0,0,2.53-.17c6.43-1.26,12.13-4.27,17.75-7.45,4.84-2.75,8.19-7,11.26-11.5.78-1.14.3-2.11-1.09-2.37a14.17,14.17,0,0,0-2.52-.26,11.88,11.88,0,0,1-6.54-2.13,46,46,0,0,1-13.73-14.4c-2.15-3.39-5.39-6.31-4.87-11-.43.52-1.42.72-.92,1.51.73,1.17.14,2-.52,2.81a50.54,50.54,0,0,1-5.37,5.77Zm-38.24-72.73c.5-1.55,1-3.11,1.51-4.65.29-.86,0-1-.86-1.16-1.41-.24-2.1.79-3.1,1.26-1.84,1-3.78,1.74-5.58,2.79-7.92,4.65-12.12,11.46-11.84,20.8-.25.82.39,1.26.86,1.58a11.73,11.73,0,0,0,10.46,2.34c.61-.14.76-.54.95-1A229.45,229.45,0,0,0,136.42,226.42ZM11.84,219.55l-.16-.18.13.13c-.64,2.42.45,4.25,2,5.94a5.24,5.24,0,0,0,3.17,1.8,24.21,24.21,0,0,0,5.77,0c4.58-.43,9.16-1,13.73-1.41s9-.87,13.47-1.26q8.51-.76,17-1.44c2.08-.16,4.16-.26,6.23-.42a115.6,115.6,0,0,1,14.89,0,66.2,66.2,0,0,0,12.82-.37c5.91-.8,11.73-2.45,17.65-3.26a117.08,117.08,0,0,1,16.39-1.61h8.77c-3.11-1.33-6.31-2.45-9.41-3.61a11.06,11.06,0,0,0-4.85-1.16c-5.3.46-10.61.58-15.92.63a9.34,9.34,0,0,0-1.18.07,34.41,34.41,0,0,1-6.09,0,78.82,78.82,0,0,0-14.41,0c-5.45.7-10.87,1.53-16.32,2.29-6.3.86-12.61,1.73-18.83,2.52-6.94.85-13.87,1.62-20.85,2.07-2.37.15-4.75.24-7.12.38A57.48,57.48,0,0,1,16,220.42C14.53,220.13,13.18,219.81,11.84,219.55Zm81.43-44A60.66,60.66,0,0,0,99,184.07c7.56,9.93,16.52,18.14,28.05,23.43,17.43,8,35.81,11.18,54.77,11.72a159.81,159.81,0,0,0,29-1.46,79.32,79.32,0,0,0,17.58-4.34,108.6,108.6,0,0,0,29.69-15.48,25.13,25.13,0,0,0,7.72-9.7,51.53,51.53,0,0,0,5-17.65,1.61,1.61,0,0,0-1.15-2l-.11,0c-6.3-2.37-12.28-5.13-17.35-9.62a14.8,14.8,0,0,1-4.61-7,8.21,8.21,0,0,1,1.37-7.74,22.35,22.35,0,0,1,6.77-5.77c.31-.17.77-.17.84-.71a2.41,2.41,0,0,0-.42-.16c-.44,0-.9-.07-1.34-.06a37.76,37.76,0,0,0-16.92,4.68q-8.82,4.53-17.65,9.25a81.53,81.53,0,0,1-14.6,5.93,24.39,24.39,0,0,1-23.32-4.1,42.35,42.35,0,0,1-13.11-17.13,80.8,80.8,0,0,1-5.42-19.6,41.62,41.62,0,0,1-.46-14.08c1.26-7.4,5.36-13,11.18-17.53a62.33,62.33,0,0,1,20.29-10.08,149.93,149.93,0,0,1,46.86-6.56h1.81a3.77,3.77,0,0,0-.28-.57c-8.07-10.08-17.29-18.91-29-24.81A210,210,0,0,0,192.66,34c-6.3-2.32-12.45-4.65-17.82-8.74-4.56-3.45-9.18-6.81-13.66-10.38a81.91,81.91,0,0,0-18-10.69,9.43,9.43,0,0,0-7.56-.35,6.22,6.22,0,0,0-5.31,5q-1.33,6.24-2.72,12.47c-.2.92.14,1.26,1,1.36a16.44,16.44,0,0,0,7.57-.47,8.32,8.32,0,0,0,1.32-.14,106.93,106.93,0,0,1,15.15-1.5c6-.13,11.15,2,16.17,4.88.47.26.87.59.57,1.18s-.72.45-1.17.29l-1-.35c-9.25-3.38-18.68-3.27-28.19-1.26a25.21,25.21,0,0,0-4.31.73L147,31.94l1.39.83c.46.26,1.14.45.77,1.17s-.87.27-1.26.09c-7.11-2.79-14.14-5.75-21.31-8.41-4.72-1.77-9.26-4.07-13.86-6.07-6.11-2.62-12.08-5.64-18.84-6.3-3.86-.35-7.73-.67-11.54.49-3.78.52-5.52,2.86-6.3,6.38-2.52,11.65-3.28,23.49-3.85,35.31-.46,9.59-.33,19.17,0,28.77a227.14,227.14,0,0,0,1.87,23.31c1.26,9.53,3,19,4.7,28.48a92.15,92.15,0,0,0,2.9,12.61c.06.37,0,.78.33,1.06v.11a91.07,91.07,0,0,0,10.74,24.87.2.2,0,0,0,.1.24ZM174.18,295a2.87,2.87,0,0,0,1.07-1.17c-.38-.38-.85-.24-1.26-.26q-4.83-.21-9.66-.37c-4.27-.14-4.5-.26-5.51-4.4a1.25,1.25,0,0,0-1.33-1.18l-.15,0a40.7,40.7,0,0,1-12.5-2.36A71.12,71.12,0,0,1,125.53,275c-.31-.25-.6-.52-.9-.76-2.6-2-2.62-2-3.3,1.26-.85,4.13-1.45,8.31-3.63,12-.6,1-1.27,2-2.53,1.38s-.94-1.58-.54-2.52v-.28c-1.41-.23-2.84-.4-4.25-.68a21,21,0,0,1-4.2-1.48c-2.23-1-4.46-1.91-6.7-2.83-1.79-.74-2.42-.53-3.52,1a53.6,53.6,0,0,0-10.09,27c-.16,2.15-.12,2.23,2.13,2.23,1.09,0,2.18.07,3.27.07a49.7,49.7,0,0,1,6.1-.14,85.49,85.49,0,0,1,15.92,3.91,39.74,39.74,0,0,0,18.65,1.56c5.73-.93,10.09-4.24,13.87-8.38,3.42-3.79,6.31-7.88,9.42-11.92.61-.79,1.26-1.5,2.36-1s1,1.45.65,2.43l-2.52,3.36C163,301.87,169.07,299.93,174.18,295Zm83.58-160.64c-.5-.8-.87-1.26-1.18-1.87-.76-1.26-1-3.16-3.26-2.66-.15,0-.35-.16-.54-.22-3-1-4-3.47-4.61-6.31a86.79,86.79,0,0,1-1.53-18.62,9.78,9.78,0,0,1,6.57-9.63c.59-.24.85-.41.72-1.15-1.32-7.57-3.34-14.79-7.44-21.35-.39-.62-.74-1.12-1.59-1.12-6,0-12-.21-18,.35s-11.65,1.55-17.43,2.61c-10.27,1.88-20.18,4.92-29.12,10.34A30.83,30.83,0,0,0,168.81,96.1c-3,5.36-3.11,11.1-2.36,16.92a84.22,84.22,0,0,0,4.68,19.35c2.8,7.3,6.81,13.73,13.25,18.49,4.69,3.48,9.85,5.28,15.61,4.41a49.14,49.14,0,0,0,14.65-4.8c8-4,15.91-8.37,24-12.35a36.92,36.92,0,0,1,15.59-3.93c1.13,0,2.24.15,3.57.24ZM87.3,225.94c-5,.09-9.86-.26-14.79.1-5.37.39-10.75.83-16.12,1.26-6.45.47-12.88,1.26-19.33,1.79-5.61.52-11.18,1.35-16.82,1.6-3.92.18-7.27-.51-9.62-3.94-.54-.8-.79-.52-1,.2a18.82,18.82,0,0,1-4.28,6.72c-.23.25-.65.48-.54.83s.67.27,1,.31a53.38,53.38,0,0,1,11.11,1.68,78.05,78.05,0,0,0,21,3.38,63.28,63.28,0,0,0,16.29-1.58c7.21-1.62,14.35-3.5,20.84-7.23a39.13,39.13,0,0,1,5-2.46C82.51,227.72,84.9,226.85,87.3,225.94Zm76.64-4.78a73.72,73.72,0,0,0,11.19,3.41,1.17,1.17,0,0,0,.84-.14c1-.68,1.85-.27,2.71.36a9.54,9.54,0,0,0,3.47,2c5.37,1.26,10.4,0,15.29-2.11a3.35,3.35,0,0,0,2.15-2.41A208.14,208.14,0,0,1,163.94,221.16ZM116.3,250.39a24.92,24.92,0,0,0,.47,7.26,7.76,7.76,0,0,0,1.78,3.33c1.73,1.74,3.55,1.43,4.54-.73.49-1.09,1.06-2.13,1.54-3.22a18.69,18.69,0,0,1,1.94-4.06C122.81,253.55,119.59,252.26,116.3,250.39ZM6,226.94c-2.23,1.26-2.67,1.95-2.52,3.7A9.54,9.54,0,0,0,6,226.94Zm178.69,52a2.57,2.57,0,0,0,.63-1.88c0-.23-.52-.2-.67,0-.63.54.11,1.2,0,1.87Zm15.39-39.83L200,239l-.09.18.08.08Z"/><path class="cls-2" d="M135.67,3.86a9.42,9.42,0,0,1,7.57.35,82.14,82.14,0,0,1,18,10.69c4.47,3.57,9.1,6.91,13.65,10.38,5.39,4.08,11.56,6.42,17.83,8.74a209.8,209.8,0,0,1,21.43,8.9c11.71,5.86,20.92,14.67,29,24.81a3,3,0,0,1,.28.57h-1.8a150,150,0,0,0-46.87,6.55A62.4,62.4,0,0,0,174.5,84.94c-5.83,4.49-9.9,10.09-11.19,17.53a41.63,41.63,0,0,0,.47,14.08,80.27,80.27,0,0,0,5.42,19.59,42.23,42.23,0,0,0,13.05,17.11,24.41,24.41,0,0,0,23.33,4.1,81.66,81.66,0,0,0,14.57-6q8.83-4.72,17.65-9.26a37.89,37.89,0,0,1,16.92-4.65,10,10,0,0,1,1.34.06,2.41,2.41,0,0,1,.42.16c0,.52-.53.54-.84.71a22.21,22.21,0,0,0-6.77,5.77,8.2,8.2,0,0,0-1.37,7.74,14.8,14.8,0,0,0,4.61,7c5.05,4.49,11.11,7.26,17.35,9.62a1.63,1.63,0,0,1,1.29,1.91l0,.11a51.53,51.53,0,0,1-5,17.65,25.13,25.13,0,0,1-7.72,9.7,108.77,108.77,0,0,1-29.7,15.52,39.48,39.48,0,0,0-9.95-.39c-5.64.26-11.25.94-16.88,1.07a210.21,210.21,0,0,1-22.17-.45c-5.47-.46-10.93-.86-16.39-1.53-6.14-.74-12.18-2-18.23-3.23-3.37-.67-6.31-2.43-9.38-3.7a79.69,79.69,0,0,1-14.16-6.85A53.52,53.52,0,0,1,108.08,187a102.71,102.71,0,0,1-12.54-20.34,172.75,172.75,0,0,1-9.48-24.36,183.6,183.6,0,0,1-5.62-29.22c-.46-3.63-1-7.25-1.26-10.9-.37-3.88-1.06-7.72-1.11-11.65,0-2.58.26-5.14.3-7.72.21-12.87-.24-25.74.25-38.61.22-5.4.59-10.77.88-16.15a74.09,74.09,0,0,1,2.78-14.39c3.78-1.16,7.66-.86,11.53-.49,6.76.63,12.74,3.66,18.84,6.3,4.65,2,9.18,4.3,13.87,6.07,7.16,2.67,14.2,5.62,21.31,8.41.44.17,1,.53,1.26-.09s-.31-.91-.77-1.17l-1.4-.84c0-.64-.52-.89-.93-1.26-2.3-1.87-4.93-3.3-7.11-5.32,9.5-2,18.91-2.08,28.19,1.26l1,.36c.46.16.92.21,1.18-.29s-.11-.92-.57-1.19c-5-2.86-10.23-5-16.18-4.88a108.71,108.71,0,0,0-14.95,1.55c-.44.08-.88.09-1.33.14.09-1.26-.27-2.46-.26-3.67C136.05,13.7,135.45,8.81,135.67,3.86ZM231.73,199a23.86,23.86,0,0,0,5.87-1,.84.84,0,0,0,.75-.93v0a.81.81,0,0,0-.8-.74h-1c-3.72-.44-7.57-.37-10.91-2.4a1.38,1.38,0,0,0-1.93.35l-.05.07c-.72,1.05-.24,1.88.67,2.52,2.28,1.68,5.06,1.73,7.43,2.14ZM107.8,50.34l4.6-.26c.78,0,1.42-.32,1.42-1.19s-.68-1.17-1.42-1.18c-4.41-.08-8.83-.15-13.08-1.58a1,1,0,0,0-1.26.49,1.11,1.11,0,0,0,.32,1.45c.26.23.58.4.84.61C101.82,50.71,104.82,50.42,107.8,50.34ZM90.22,31.22a34.46,34.46,0,0,0,3,6.86.83.83,0,0,0,1,.34.86.86,0,0,0,.63-1h0c-.61-2.4-1.26-4.8-1.94-7.17-.22-.74-.69-1.63-1.66-1.42S90.32,30,90.22,31.22Z"/><path class="cls-3" d="M257.76,134.43c-1.33-.08-2.46-.23-3.57-.2a36.92,36.92,0,0,0-15.59,3.93c-8.06,4-15.95,8.31-24,12.35a49.14,49.14,0,0,1-14.65,4.8c-5.76.87-10.92-.93-15.61-4.41-6.43-4.77-10.44-11.19-13.25-18.49a84.31,84.31,0,0,1-4.67-19.3c-.76-5.81-.63-11.56,2.36-16.92a30.78,30.78,0,0,1,11.53-11.35c9-5.42,18.91-8.46,29.11-10.34,5.79-1.06,11.59-2,17.44-2.61a179.48,179.48,0,0,1,18-.35,1.7,1.7,0,0,1,1.59,1.12c4.09,6.56,6.11,13.87,7.44,21.35.14.75-.12.92-.72,1.14a9.8,9.8,0,0,0-6.57,9.64,86.24,86.24,0,0,0,1.52,18.63c.58,2.79,1.64,5.23,4.61,6.31.19.06.39.26.54.22,2.25-.51,2.53,1.38,3.26,2.66C256.89,133.11,257.25,133.64,257.76,134.43ZM195.68,105c-.09.45-.14.89-.25,1.27a34.49,34.49,0,0,0-1.26,6.84,35.49,35.49,0,0,0,2.72,15.47,27.54,27.54,0,0,0,10.31,13.15c3.15,2.16,7.77,2.21,10.49,0,3.71-2.94,5-7.15,5-11.64A45.72,45.72,0,0,0,221.3,120c-1.07-4.68-1.74-9.52-4.41-13.63s-6-8.07-11.74-8.36c3.16-2,6.3-4,9.49-6.12a66.91,66.91,0,0,1,9.42-5.37,11.91,11.91,0,0,0,5.79-5c1.06-1.88-.17-3.7-2.26-4.1a29.25,29.25,0,0,0-5,.08,55,55,0,0,0-8.4.83c-2.16.26-4.3.67-6.44.93a28.29,28.29,0,0,0-10.64,3,100.41,100.41,0,0,0-8.83,5.23,31.59,31.59,0,0,0-5.56,4.89,63.14,63.14,0,0,1-8.44,8.15c-.51.4-1,.78-1,1.53,0,3.33.28,6.54,2.52,9.27,1.9,2.36,4.09,4.15,7.34,3.39a13.68,13.68,0,0,0,7.43-4.93A21.6,21.6,0,0,1,195.68,105Zm-2.52,46.81a3.19,3.19,0,0,0,1.88-.41c.61-.35,1.26-.65,1.26-1.5a1.74,1.74,0,0,0-1.14-1.61,81.35,81.35,0,0,1-8.82-5.57c-.62-.42-1.39-.82-2.05-.19s-.35,1.26,0,2a12.87,12.87,0,0,0,4.09,5c1.33,1.06,2.6,2.41,4.71,2.3Z"/><path class="cls-4" d="M157.15,221.89A82.53,82.53,0,0,0,175.92,228a9.19,9.19,0,0,1,5.18,3.14c3.14,3.53,6.52,6.82,9.89,10.09a24.56,24.56,0,0,0,5.67,4.31c1.74.93,2.52.66,3.49-1.06.36-.64.9-1.18,1.27-1.81a1.38,1.38,0,0,1,1.87-.5,16.2,16.2,0,0,1,7.82,7.27,21.77,21.77,0,0,1,2.32,6.88,10.06,10.06,0,0,1-1.44,6.42,9.43,9.43,0,0,0-1.17.17c-3.21,1-6.42,2.06-9.64,3-2.7.79-5.41,1.62-8.29,1a25.09,25.09,0,0,1-5.56-2.05c-10.48-5-19.25-12.43-28.2-19.65a25.22,25.22,0,0,0-4.85-3.41,3.75,3.75,0,0,0-3.95,0,2,2,0,0,0-.92,2.61,1.62,1.62,0,0,0,.27.41,2.87,2.87,0,0,0,.85,2.53,66.86,66.86,0,0,0,13.87,12l3.45,2.33-3.15,2.17c-2.74,1.87-3.44,3.6-2.77,6.79a61.66,61.66,0,0,1-29-11.35c-.45-.32-.82-.71-1.26-1.07.1-1.45,1.12-2.53,1.53-3.79a256.84,256.84,0,0,1,11.26-29.9c.23-.5.41-.85,1-.92a26.13,26.13,0,0,1,5.29-.58,30.56,30.56,0,0,0,4.59-.38C156,222.73,156.89,222.88,157.15,221.89Z"/><path class="cls-4" d="M125.51,275.05a71,71,0,0,0,19.32,10.31,40.34,40.34,0,0,0,12.49,2.36,1.26,1.26,0,0,1,1.47,1,.77.77,0,0,1,0,.15c1,4.13,1.26,4.26,5.51,4.4,3.22.1,6.44.23,9.66.37.42,0,.88-.11,1.26.26a2.9,2.9,0,0,1-1.07,1.18c-.88-.95-1.92-.57-2.91-.29-3.35.93-6.51,2.42-9.94,3.06-1,.19-2,.77-3.09.08.38-1,.44-1.91-.65-2.43s-1.77.21-2.36,1c-3.07,4-6,8.17-9.42,11.92-3.78,4.14-8.15,7.45-13.87,8.38a39.71,39.71,0,0,1-18.64-1.61,86.09,86.09,0,0,0-16-3.9,49.7,49.7,0,0,0-6.1.14c-1.08,0-2.18,0-3.26-.06a12.47,12.47,0,0,1,.27-3.11,52.54,52.54,0,0,1,8.44-22.16c1.69-2.38,1.63-2.43,4.13-1.09l2,1.08c3,1.66,5.93,3.68,9.23,4.8,4.17,1.41,7.33.88,9.28-3.33,1.26-2.75,2.41-5.53,3.49-8.37C125.25,277.84,124.86,276.36,125.51,275.05Z"/><path class="cls-5" d="M82.25,13.7a74.13,74.13,0,0,0-2.78,14.38c-.29,5.38-.67,10.77-.89,16.15-.5,12.87,0,25.73-.25,38.61,0,2.52-.34,5.14-.3,7.72,0,3.93.76,7.77,1.11,11.66.34,3.64.84,7.26,1.26,10.89A185.06,185.06,0,0,0,86,142.34a175.58,175.58,0,0,0,9.48,24.35A103.18,103.18,0,0,0,108,187a53.71,53.71,0,0,0,13.11,11.35,79.69,79.69,0,0,0,14.16,6.85c3.11,1.26,6,3,9.38,3.7,6.05,1.26,12.08,2.52,18.23,3.23,5.45.67,10.92,1.06,16.39,1.53a210.27,210.27,0,0,0,22.17.45c5.63-.13,11.24-.82,16.88-1.07a39.48,39.48,0,0,1,9.95.39,79.32,79.32,0,0,1-17.58,4.34,160.71,160.71,0,0,1-29,1.46c-18.91-.56-37.34-3.78-54.77-11.73-11.53-5.29-20.49-13.49-28-23.42a60.86,60.86,0,0,1-5.69-8.53c0-.35,0-.68-.49-.73a.18.18,0,0,1-.1-.24,3.13,3.13,0,0,0-.56-1.89c-2.87-5.81-5.68-11.66-8.1-17.65-.72-1.78-1-3.78-2.07-5.36v-.11c0-.37.1-.81-.33-1.06a92.15,92.15,0,0,1-2.9-12.61c-1.75-9.46-3.38-18.91-4.7-28.48A227.56,227.56,0,0,1,72.1,84.13c-.32-9.58-.46-19.17,0-28.77.57-11.85,1.26-23.69,3.85-35.3C76.74,16.57,78.53,14.22,82.25,13.7Z"/><path class="cls-4" d="M175,298.81a50.54,50.54,0,0,0,5.37-5.77c.66-.84,1.26-1.64.52-2.81-.49-.79.5-1,.92-1.51-.52,4.64,2.72,7.56,4.87,11a45.93,45.93,0,0,0,13.61,14.38,12,12,0,0,0,6.55,2.14,14.27,14.27,0,0,1,2.52.26c1.39.25,1.86,1.26,1.08,2.37-3.06,4.5-6.41,8.76-11.26,11.5-5.61,3.18-11.34,6.19-17.75,7.45a6.9,6.9,0,0,1-2.52.16,2,2,0,0,0-.29-1.13c-2.52-4.58-5.28-9.09-8.22-13.45-3.15-4.69-6.87-9-10.39-13.37-.59-.74-.48-1,.36-1.35a61.37,61.37,0,0,0,11.35-6.23,6.05,6.05,0,0,0,2.94-3.35h0a.3.3,0,0,0,.34-.26Z"/><path class="cls-6" d="M11.84,219.55c1.36.28,2.71.58,4.07.81a58.11,58.11,0,0,0,12.78.24c2.37-.14,4.76-.22,7.13-.38,7-.46,13.87-1.26,20.84-2.07,6.3-.77,12.61-1.63,18.83-2.52,5.45-.75,10.87-1.58,16.32-2.3a80.65,80.65,0,0,1,14.41,0,34.41,34.41,0,0,0,6.09,0,11.71,11.71,0,0,1,1.19-.06c5.3,0,10.61-.18,15.91-.63a11.06,11.06,0,0,1,4.85,1.16c3.14,1.16,6.31,2.28,9.41,3.61h-8.73A117.08,117.08,0,0,0,118.55,219c-5.94.82-11.74,2.52-17.65,3.25a65.66,65.66,0,0,1-12.77.37,115.6,115.6,0,0,0-14.89,0c-2.08.14-4.16.24-6.23.41q-8.51.7-17,1.44-6.74.6-13.47,1.26c-4.57.46-9.15,1-13.73,1.41a23.21,23.21,0,0,1-5.77,0,5.24,5.24,0,0,1-3.17-1.8c-1.54-1.7-2.62-3.53-2-5.94Z"/><path class="cls-7" d="M87.3,225.94c-2.4.91-4.79,1.78-7.18,2.7a36.68,36.68,0,0,0-5,2.46c-6.49,3.78-13.63,5.61-20.84,7.22A63.63,63.63,0,0,1,38,239.84a79,79,0,0,1-21-3.38,53.4,53.4,0,0,0-11.1-1.69c-.37,0-.89.2-1-.31s.33-.56.54-.83a18.71,18.71,0,0,0,4.23-6.69c.21-.72.47-1,1-.2,2.33,3.43,5.7,4.12,9.62,3.94,5.63-.25,11.21-1.08,16.82-1.6,6.44-.59,12.87-1.26,19.33-1.79,5.37-.39,10.74-.82,16.11-1.26C77.42,225.68,82.33,226,87.3,225.94Z"/><path class="cls-8" d="M275,147.61a19.33,19.33,0,0,1,1.45,6.45,32.68,32.68,0,0,1,.08,8.89c-.34,1.93-2.52,3.67-4.35,3.05-7-2.32-13.6-5.31-18.91-10.51a10.69,10.69,0,0,1-2.75-4.86,4.64,4.64,0,0,1,.83-4.36,17,17,0,0,1,7.9-5.86,14.41,14.41,0,0,1,7.46.12c1.26.27,2.52.7,3.9.94,1.74.31,3.68,2.52,3.55,4.12a6,6,0,0,0-6.3-.61,3.39,3.39,0,0,0-1.81,4.43,3.65,3.65,0,0,0,.4.69,5,5,0,0,0,5.86,1.65C274.32,151.12,275,150.09,275,147.61Z"/><path class="cls-6" d="M130,261.28A66.1,66.1,0,0,0,161.31,274a5.32,5.32,0,0,1-1.48,1.72c-2.29,2-3.31,4.39-2.23,7.43.33.93.27,1.35-1.07,1.26-11.35-.81-21-5.94-29.83-12.61Z"/><path class="cls-4" d="M136.42,226.42a227.46,227.46,0,0,1-7.57,22c-.19.46-.34.86-.94,1a11.73,11.73,0,0,1-10.49-2.32c-.47-.38-1.11-.76-.86-1.58a56.37,56.37,0,0,0,3-7.41c1-2.65,1.83-5,4.43-6.83,3.32-2.25,6.5-4.68,9.86-6.9.47-.31.86-.44,1,.39S135.35,226.4,136.42,226.42Z"/><path class="cls-9" d="M149.71,244.93a2,2,0,0,1,.22-2.75,2.36,2.36,0,0,1,.42-.28,3.81,3.81,0,0,1,4,0,25.2,25.2,0,0,1,4.84,3.42c8.94,7.2,17.73,14.64,28.21,19.64a24.45,24.45,0,0,0,5.56,2.06c2.87.6,5.58-.21,8.28-1,3.23-.94,6.43-2,9.65-3a7.5,7.5,0,0,1,1.17-.18,2.22,2.22,0,0,1-1.4,2.06c-3.85,2.05-7.57,4.34-12,5a18.65,18.65,0,0,1-9.54-.76,105.79,105.79,0,0,1-32.85-20.29,40.34,40.34,0,0,1-3.34-3.59C151.76,244,151.15,243.85,149.71,244.93Z"/><path class="cls-9" d="M174.66,299.15a6.05,6.05,0,0,1-2.94,3.35,62.57,62.57,0,0,1-11.35,6.23c-.85.36-1,.6-.36,1.35,3.52,4.41,7.24,8.67,10.39,13.36,2.94,4.36,5.63,8.83,8.22,13.46a1.93,1.93,0,0,1,.29,1.13,5,5,0,0,1-5-2.28c-1-1.4-2-2.83-3-4.3-5.24-8.37-12.11-15.32-19.21-22.05-1-1-1.26-1.57-.27-2.83a4.35,4.35,0,0,1,4.6-2.05,24.45,24.45,0,0,0,17-4.42Z"/><path class="cls-9" d="M125.51,275.05c-.62,1.26-.27,2.79-.79,4.16-1.07,2.84-2.22,5.63-3.49,8.37-2,4.22-5,4.76-9.28,3.33-3.32-1.12-6.19-3.12-9.23-4.8l-2-1.07c-2.52-1.34-2.45-1.26-4.14,1.08-4.7,6.68-7.11,14.21-8.43,22.17a12.43,12.43,0,0,0-.28,3.1c-2.26,0-2.28-.09-2.13-2.23a53.6,53.6,0,0,1,10.09-27c1.09-1.59,1.72-1.79,3.52-1.05,2.24.92,4.47,1.88,6.7,2.84a20.93,20.93,0,0,0,4.2,1.47c1.41.28,2.84.46,4.25.68,0,.12.08.22,0,.28-.4,1-.64,2,.54,2.52s2-.35,2.52-1.37c2.17-3.78,2.79-7.92,3.64-12,.68-3.34.7-3.34,3.3-1.26C124.93,274.53,125.21,274.85,125.51,275.05Z"/><path class="cls-10" d="M218.92,259.85l-2.53,1.69a20.63,20.63,0,0,0-7-19.13,10.12,10.12,0,0,1-.71-.75c1.62.11,2.95,1.05,4.46,1.52a2.33,2.33,0,0,0,3.12-1.07h0a19.85,19.85,0,0,1,2.73-4.05,2.8,2.8,0,0,1,4-.27l.16.15a9.69,9.69,0,0,1,3.13,5.44,5.19,5.19,0,0,1-3.08,6.25,15.93,15.93,0,0,1-3,.94c-1.83.49-2.31,1-1.93,2.82a17.53,17.53,0,0,1,.24,3.39A9.65,9.65,0,0,0,218.92,259.85Z"/><path class="cls-10" d="M207.54,240.81a1.22,1.22,0,0,1-.27-.09c-2.66-1.56-2.66-1.56-1.82-4.59.32-1.15.59-2.31.93-3.44a2.39,2.39,0,0,1,2.37-1.74c-.45.56-.82,1-1.14,1.43a1.57,1.57,0,0,0,0,2.22l.08.07a1.51,1.51,0,0,0,2.12,0,1.83,1.83,0,0,0,.13-.16c1.2-1.2,2.34-2.45,3.52-3.65a13.08,13.08,0,0,1,1.91-1.65c1.86-1.26,3.63-1.91,5.81-.25a65.45,65.45,0,0,1,5.36,3.78c2.66,2.33,4.08,5,3.4,8.69a26.29,26.29,0,0,1-.59,3.64,11.48,11.48,0,0,0-3.78-9,6,6,0,0,0-8.44-.22c-.13.13-.27.27-.39.41a8.24,8.24,0,0,0-2.08,3.38c-.25.81-.53,1-1.32.38a17.55,17.55,0,0,0-3.07-1.81,1.76,1.76,0,0,0-2.44.43,1.73,1.73,0,0,0-.31,1.21A8.11,8.11,0,0,1,207.54,240.81Z"/><path class="cls-9" d="M157.15,221.89c-.24.94-1.14.77-1.72.82a29.41,29.41,0,0,1-4.59.38,26.86,26.86,0,0,0-5.29.58c-.61.08-.77.43-1,.92a257.68,257.68,0,0,0-11.26,29.91c-.43,1.26-1.45,2.4-1.54,3.78a.33.33,0,0,1-.14,0c-2.73-2.29-2.72-2.28-1.26-5.52,4.39-9.38,7.2-19.32,10.32-29.14,1-3.05.93-3.07,4.15-3,3,0,6.06.13,9.09.1A4,4,0,0,1,157.15,221.89Z"/><path class="cls-11" d="M207.54,240.81v-1.05a1.77,1.77,0,0,1,1.54-1.95,1.73,1.73,0,0,1,1.21.31,17.5,17.5,0,0,1,3.07,1.8c.79.63,1.07.43,1.32-.37a8.24,8.24,0,0,1,2.08-3.38,6,6,0,0,1,8.41-.59c.15.13.28.26.42.4a11.47,11.47,0,0,1,3.78,9,12.48,12.48,0,0,1-1.57,5l-.22.43v.09h-.08a16.42,16.42,0,0,1-5.92,2.89c-.72.15-.9.86-.9,1.55v3.87a4.52,4.52,0,0,1-1.75,1,9.65,9.65,0,0,1-.32-3.07,17.58,17.58,0,0,0-.24-3.4c-.37-1.79.1-2.33,1.93-2.82a15.26,15.26,0,0,0,2.9-.91,5.2,5.2,0,0,0,3-6.23,9.66,9.66,0,0,0-3.13-5.43,2.79,2.79,0,0,0-4-.05l-.16.16a19.85,19.85,0,0,0-2.73,4,2.34,2.34,0,0,1-3.12,1.08h0c-1.5-.46-2.84-1.41-4.46-1.51h0l-.42-.32-.45-.34-.34-.27Z"/><path class="cls-9" d="M135.67,3.86c-.22,4.93.38,9.84.33,14.77,0,1.26.36,2.44.27,3.67a16.3,16.3,0,0,1-7.57.48c-.84-.1-1.2-.44-1-1.36.93-4.15,1.82-8.31,2.72-12.47A6.22,6.22,0,0,1,135.67,3.86Z"/><path class="cls-12" d="M174.48,290.4c-3.72-.14-7.44-.29-11.15-.41a1,1,0,0,1-1.2-1c-.52-2.67-1.11-5.33-1.68-8a2.09,2.09,0,0,1,.73-2c1.87-1.93,3.78-3.78,5.59-5.78a1.9,1.9,0,0,1,1.75-.55c3.78.38,7.5.76,11.25,1.11.64,0,1.06.2.94.95a3.86,3.86,0,0,0-2.87.84,3,3,0,0,1-3.38-.16,2.53,2.53,0,0,0-3.51-.66,2.7,2.7,0,0,0-.5.46c-1.39,1.35-2.72,2.76-4.22,4S163.87,282,165,284a12.3,12.3,0,0,1,1,3.26,1.67,1.67,0,0,0,1.76,1.57h0c2.18.13,4.35.45,6.52.66C175.29,289.61,175.09,290,174.48,290.4Z"/><path class="cls-6" d="M163.94,221.16a208.14,208.14,0,0,0,35.65,1.06,3.35,3.35,0,0,1-2.15,2.41c-4.89,2.11-9.92,3.32-15.29,2.11a9.54,9.54,0,0,1-3.47-2c-.86-.63-1.67-1-2.71-.36a1.17,1.17,0,0,1-.84.14A73.72,73.72,0,0,1,163.94,221.16Z"/><path class="cls-12" d="M161.93,270.75c-.67-3.19,0-4.92,2.77-6.78l3.15-2.17a106.83,106.83,0,0,0,15.85,8.59c.16.75-.78,1.17-.58,1.94-2.4-2.61-5.71-1.77-8.65-2.27-1.95-.34-3.95-.38-5.91-.58a3.94,3.94,0,0,0-3.56,1.07C164,271.58,163,270.75,161.93,270.75Z"/><path class="cls-12" d="M181.3,278.9a26.59,26.59,0,0,0,.45,2.93,2.42,2.42,0,0,1-.67,2.43.41.41,0,0,0-.38.35h0a.3.3,0,0,0-.32.29h0a25.47,25.47,0,0,0-4.07,3.41,2.27,2.27,0,0,1-1.84.71c-2-.22-4-.37-6.05-.61-.56-.07-1.26,0-1.43-.84-.47-1.71-1-3.41-1.5-5.12a1.47,1.47,0,0,1,.48-1.68c1.76-1.62,3.41-3.32,5.13-5a1.86,1.86,0,0,1,2.61,0l0,0a4.29,4.29,0,0,0,3.91.53c2.24-.73,2.52-.76,3.34,1.16h0A2.61,2.61,0,0,0,181.3,278.9ZM174,287c.48,0,1,.15,1.32-.19a21.22,21.22,0,0,0,4.15-4c.62-1-.5-2.6-.77-3.94a2.46,2.46,0,0,1-.07-.29c0-.59-.34-.83-1-.87-1.63-.12-3.25-.3-4.88-.48a1.26,1.26,0,0,0-1,.51,35.56,35.56,0,0,1-3,2.85c-1.13.87-.92,1.77-.73,3,.41,2.46,1.65,3.47,4.1,3.21A8.53,8.53,0,0,1,174,287Z"/><path class="cls-9" d="M136.42,226.42c-1.07,0-1.46-.81-1.62-1.66s-.52-.71-1-.39c-3.35,2.21-6.55,4.65-9.86,6.89-2.6,1.75-3.47,4.19-4.43,6.84a56.93,56.93,0,0,1-3,7.41c-.29-9.34,3.92-16.15,11.84-20.8,1.79-1.05,3.78-1.82,5.58-2.79,1-.53,1.7-1.55,3.1-1.26.86.15,1.15.3.86,1.16C137.47,223.32,136.92,224.87,136.42,226.42Z"/><path class="cls-10" d="M116.3,250.39c3.29,1.85,6.53,3.15,10.33,2.61a18.93,18.93,0,0,0-1.94,4.06c-.49,1.08-1,2.13-1.54,3.21-1,2.17-2.81,2.53-4.53.74a7.78,7.78,0,0,1-1.85-3.36A24.92,24.92,0,0,1,116.3,250.39Z"/><path class="cls-13" d="M254.72,105c0,4.8.13,9.61,0,14.41-.07,2.17-.24,4.34-.22,6.51,0,.89-.42.91-1,.52a3.51,3.51,0,0,1-1.54-1.58,16.67,16.67,0,0,1-1.18-5.75c0-1.06-.18-2-.26-3.06a13,13,0,0,0,.64-3.61C251.6,109.52,252.2,106.8,254.72,105Z"/><path class="cls-14" d="M275,147.61c0,2.52-.67,3.51-2.75,4.14a5,5,0,0,1-5.87-1.65,3.38,3.38,0,0,1,.72-4.72,3.73,3.73,0,0,1,.7-.4,6,6,0,0,1,6.3.61h0a.5.5,0,0,0,.32.6h0l.3.47A1.18,1.18,0,0,0,275,147.61Z"/><path class="cls-12" d="M197.72,234.17c-.43,2.38-1.39,4.62-1.56,7.41a95.8,95.8,0,0,1-8.83-8.62c.82-1.16,2.23-.84,3.3-1.34a4.68,4.68,0,0,1,4.73.51C196.28,232.69,196.57,233.92,197.72,234.17Z"/><path class="cls-9" d="M158.24,297.92c1,.7,2.1.1,3.09-.07,3.42-.63,6.6-2.13,9.94-3.07,1-.27,2-.65,2.91.29-5,4.86-11.18,6.79-18.51,6.22Z"/><path class="cls-4" d="M254.72,105c-2.46,1.85-3.11,4.57-3.55,7.39a13,13,0,0,1-.63,3.61c-.57-.89-.31-1.91-.39-2.85a56.16,56.16,0,0,1-.21-9.35,6.77,6.77,0,0,1,3.4-5.13c.84-.57,1.26-.31,1.26.68C254.58,101.19,254.65,103.07,254.72,105Z"/><path class="cls-7" d="M130,261.28l-3.3,10.49L124,269.49a1.27,1.27,0,0,1-.52-1.45,38.55,38.55,0,0,1,3.6-7.93,3.53,3.53,0,0,0,1.81.33A1.61,1.61,0,0,1,130,261.28Z"/><path class="cls-6" d="M181,277.46c-.84-1.92-1.09-1.89-3.34-1.16a4.29,4.29,0,0,1-3.91-.53,1.84,1.84,0,0,0-2.6,0l0,0c-1.73,1.64-3.38,3.34-5.13,5a1.45,1.45,0,0,0-.48,1.68c.52,1.71,1,3.41,1.5,5.12.22.79.87.76,1.43.84,2,.24,4,.39,6,.61a2.24,2.24,0,0,0,1.84-.72,25.94,25.94,0,0,1,4.07-3.4,20.37,20.37,0,0,1-4.84,5.38.89.89,0,0,1-1.1.12c.61-.44.85-.78-.2-.9-2.18-.21-4.35-.53-6.52-.65a1.67,1.67,0,0,1-1.76-1.56h0a12.41,12.41,0,0,0-1-3.26c-1.13-2.07-.41-3.46,1.27-4.81a56.25,56.25,0,0,0,4.22-4,2.52,2.52,0,0,1,3.55-.3,2.19,2.19,0,0,1,.46.5,3,3,0,0,0,3.38.17,3.82,3.82,0,0,1,2.87-.85A5.37,5.37,0,0,1,181,277.46Z"/><path class="cls-4" d="M197.72,234.17c-1.16-.25-1.44-1.48-2.39-2a4.69,4.69,0,0,0-4.73-.52c-1.07.52-2.52.19-3.31,1.35l-2.3-2,.19-.43a34.37,34.37,0,0,0,13.34-2.69C198.26,230.06,198.5,232.16,197.72,234.17Z"/><path class="cls-10" d="M220.68,258.86V255c0-.69.18-1.4.9-1.55a16.26,16.26,0,0,0,5.92-2.89C226.13,254.05,224.24,257.2,220.68,258.86Z"/><path class="cls-9" d="M138.94,25.3c2.18,2,4.82,3.45,7.11,5.32.43.36.93.6.93,1.27l-12.35-5.84A26.08,26.08,0,0,1,138.94,25.3Z"/><path class="cls-4" d="M82,149.71c1,1.58,1.26,3.59,2,5.36,2.44,6,5.25,11.86,8.11,17.65a3.19,3.19,0,0,1,.57,1.82A90.8,90.8,0,0,1,82,149.71Z"/><path class="cls-4" d="M183.11,272.33c-.2-.77.74-1.19.58-1.94.45.19.91.35,1.35.56a1.58,1.58,0,0,1,.72,2.11,2.42,2.42,0,0,1-.29.42c-.5.37-1.27.75-1.69-.22A6.86,6.86,0,0,0,183.11,272.33Z"/><path class="cls-7" d="M6,226.94a9.54,9.54,0,0,1-2.52,3.7C3.34,228.88,3.82,228.2,6,226.94Z"/><path class="cls-9" d="M184.7,278.9c.08-.67-.67-1.26,0-1.94.15-.14.61-.17.66,0A2.53,2.53,0,0,1,184.7,278.9Z"/><path class="cls-14" d="M128.87,260.43a3.67,3.67,0,0,1-1.82-.33c-.09-.41-.06-.83.33-1s.54.27.79.46A1.63,1.63,0,0,1,128.87,260.43Z"/><path class="cls-6" d="M181.3,278.9a2.67,2.67,0,0,1-.3-1.47C181.48,277.84,181.29,278.39,181.3,278.9Z"/><path class="cls-4" d="M81.6,148.54c.43.25.27.69.33,1.06C81.6,149.32,81.66,148.9,81.6,148.54Z"/><path class="cls-4" d="M92.77,174.81c.45,0,.49.38.49.74Z"/><path class="cls-8" d="M274.41,146.17a.5.5,0,0,1-.32-.61C274.41,145.65,274.42,145.9,274.41,146.17Z"/><path class="cls-15" d="M200.09,239.07l-.1.17s-.09-.07-.08-.08L200,239Z"/><path class="cls-10" d="M208.34,241.37l.41.32Z"/><path class="cls-8" d="M274.71,146.61l-.3-.47Z"/><path class="cls-6" d="M11.81,219.56l-.13-.12.14.11Z"/><path class="cls-6" d="M180.41,284.94a.3.3,0,0,1,.3-.31h0a.29.29,0,0,1-.27.31Z"/><path class="cls-10" d="M227.59,250.41l.23-.42Z"/><path class="cls-9" d="M175,298.81a.3.3,0,0,1-.3.3h0Z"/><path class="cls-10" d="M207.54,240.81l.34.27Z"/><path class="cls-6" d="M180.71,284.61a.41.41,0,0,1,.38-.35Z"/><path class="cls-1" d="M231.73,199c-2.36-.41-5.15-.46-7.47-2.16-.89-.66-1.39-1.49-.67-2.53a1.39,1.39,0,0,1,1.91-.46l.07,0c3.37,2,7.2,2,10.91,2.39h1a.82.82,0,0,1,.8.75.85.85,0,0,1-.71,1h0A24,24,0,0,1,231.73,199Z"/><path class="cls-1" d="M107.8,50.34c-3,.12-6,.38-8.55-1.66-.27-.21-.58-.38-.85-.61A1.1,1.1,0,0,1,98,46.64a1,1,0,0,1,1.26-.49c4.25,1.42,8.66,1.51,13.07,1.57.75,0,1.44.3,1.43,1.19s-.64,1.13-1.43,1.18Z"/><path class="cls-1" d="M90.22,31.22c.1-1.26.12-2.21,1.12-2.44s1.44.68,1.66,1.42c.71,2.37,1.33,4.77,1.94,7.17a.86.86,0,0,1-.62,1h0a.83.83,0,0,1-1-.34A34.46,34.46,0,0,1,90.22,31.22Z"/><path class="cls-16" d="M195.68,105a21.29,21.29,0,0,0-5.18,4.84,13.74,13.74,0,0,1-7.43,4.93c-3.25.75-5.45-1-7.34-3.39-2.19-2.74-2.52-5.94-2.52-9.27,0-.76.52-1.15,1-1.54a63.67,63.67,0,0,0,8.44-8.14,31.25,31.25,0,0,1,5.56-4.9,100.25,100.25,0,0,1,8.82-5.23,28.52,28.52,0,0,1,10.64-3c2.16-.27,4.29-.67,6.45-.94a57.59,57.59,0,0,1,8.39-.83,29.38,29.38,0,0,1,5.05-.08c2.09.41,3.31,2.22,2.25,4.1a12,12,0,0,1-5.78,5,65.94,65.94,0,0,0-9.42,5.37C211.49,94,208.32,96,205.13,98a5.14,5.14,0,0,0-3.78.71,14.87,14.87,0,0,0-5.41,5.93l-.27.31Z"/><path class="cls-1" d="M195.94,104.64a14.88,14.88,0,0,1,5.39-6,5.13,5.13,0,0,1,3.78-.71c5.69.29,8.95,4.08,11.74,8.36s3.35,9,4.41,13.63A45.22,45.22,0,0,1,222.62,130c0,4.49-1.26,8.69-5,11.64-2.72,2.15-7.33,2.1-10.49,0a27.67,27.67,0,0,1-10.27-13.08,35.75,35.75,0,0,1-2.75-15.39,36.24,36.24,0,0,1,1.26-6.85c.11-.43.16-.87.25-1.26h0Zm19.1,5.51a13.75,13.75,0,0,0-7.9-8.55c-3-1.26-4.56-.52-6.65,2s-2.67,5.72-3,8.83c-.74,6.38,1.14,12.25,3.78,17.92.16.34.26.79.77.81a3.52,3.52,0,0,0,.57,1.5,60.87,60.87,0,0,0,5,5.37c2.85,2.68,8.52,3.1,10.6-2.41a18.29,18.29,0,0,0,.81-9.16,102.73,102.73,0,0,0-3.28-15,1.26,1.26,0,0,0-.71-1.24Z"/><path class="cls-16" d="M193.09,151.83c-2.13.11-3.38-1.26-4.79-2.31a12.85,12.85,0,0,1-4.08-5,1.79,1.79,0,0,1,0-2c.49-.54,1.42-.22,2,.19a81,81,0,0,0,8.83,5.58,1.72,1.72,0,0,1,1.13,1.61c0,.84-.66,1.15-1.26,1.5A3.22,3.22,0,0,1,193.09,151.83Z"/><path class="cls-6" d="M174,287a8.53,8.53,0,0,0-1.88-.21c-2.45.25-3.69-.76-4.1-3.21-.19-1.26-.4-2.11.73-3a35.56,35.56,0,0,0,3-2.85,1.26,1.26,0,0,1,1-.51c1.63.18,3.25.36,4.88.48a.84.84,0,0,1,1,.87,2.46,2.46,0,0,0,.07.29c.27,1.35,1.4,2.93.77,3.94a21.22,21.22,0,0,1-4.15,4C175,287.14,174.56,287,174,287Zm-.57-3.13c1,0,2.36-1,2.32-1.91a1.45,1.45,0,0,0-1.36-1.54h-.26a2.44,2.44,0,0,0-2.4,2c.05,1.08.82,1.37,1.74,1.43Z"/><path class="cls-3" d="M195.94,104.64l-.27.31Z"/><path class="cls-13" d="M215,110.18c.66.21.67.84.82,1.33a101.44,101.44,0,0,1,3.28,15,18.29,18.29,0,0,1-.8,9.16c-2.08,5.51-7.76,5.05-10.61,2.41a62.4,62.4,0,0,1-5-5.37,3.66,3.66,0,0,1-.57-1.5,65.38,65.38,0,0,1-1.61-10.69c-.12-.88.36-1,1.06-.94a3.42,3.42,0,0,0,3.26-2.16,5.85,5.85,0,0,0-1.51-6.51c-1.26-.88-.69-1.26.13-1.85C206.81,106.67,211.46,107.16,215,110.18Z"/><path class="cls-4" d="M215,110.18c-3.58-3.07-8.28-3.51-11.59-1.12-.82.59-1.35,1-.13,1.85a5.86,5.86,0,0,1,1.46,6.52,3.43,3.43,0,0,1-3.26,2.17c-.68,0-1.16,0-1.06.94a66.63,66.63,0,0,0,1.6,10.69c-.51,0-.61-.48-.77-.81-2.69-5.67-4.57-11.54-3.78-17.93.36-3.15.92-6.3,3-8.82s3.65-3.21,6.64-2A13.79,13.79,0,0,1,215,110.18Z"/><path class="cls-12" d="M173.5,283.86c-.92,0-1.69-.34-1.7-1.43a2.43,2.43,0,0,1,2.39-2,1.45,1.45,0,0,1,1.62,1.26,1.22,1.22,0,0,1,0,.27C175.86,282.82,174.55,283.85,173.5,283.86Z"/></g></g></g></g></svg>