<svg xmlns="http://www.w3.org/2000/svg" width="264.88" height="354.02" viewBox="0 0 264.88 354.02"><defs><style>.cls-1{fill:#17458b;}.cls-2{fill:#eff2fc;}.cls-3{fill:#2d7dca;}.cls-4{fill:#ced1d9;}.cls-5{fill:#2283f0;}.cls-6{fill:#323641;}.cls-7{fill:#2667ad;}.cls-8{fill:#fefefe;}.cls-9{fill:#3145a4;}.cls-10{fill:#fed300;}.cls-11{fill:#fef218;}.cls-12{fill:#d9b500;}.cls-13{fill:#cdd0d9;}.cls-14{fill:#f8d003;}.cls-15{fill:#e3e8f4;}.cls-16{fill:#2276d3;}.cls-17{fill:#2280e8;}.cls-18{fill:#6076b6;}.cls-19{fill:#b6bba6;}.cls-20{fill:#899cbc;}.cls-21{fill:#18458c;}.cls-22{fill:#18468c;}.cls-23{fill:#59a0dc;}.cls-24{fill:#abacb3;}.cls-25{fill:#ccd4eb;}.cls-26{fill:#b0bcdd;}.cls-27{fill:#5d79b2;}</style></defs><title>资源 5</title><g id="图层_2" data-name="图层 2"><g id="图层_1-2" data-name="图层 1"><g id="图层_2-2" data-name="图层 2"><g id="图层_1-2-2" data-name="图层 1-2"><path class="cls-1" d="M119.41,225.66a2.66,2.66,0,0,0-.69,0,162.3,162.3,0,0,0-17.28,7.65,116.06,116.06,0,0,1-20.62,8.8c-7.33,2.39-14.93,3.22-22.56,3.79a80.83,80.83,0,0,1-13.11.1,49.32,49.32,0,0,1-18.69-5.66,40.76,40.76,0,0,1-12-9.12,31.21,31.21,0,0,0-9.62-7.41,13.72,13.72,0,0,1-4.16-3.33,1.7,1.7,0,0,1,1.38-3,2.35,2.35,0,0,0,2.44-1,5.26,5.26,0,0,1,3.78-1.87A2.27,2.27,0,0,0,10.45,213c.28-.69.5-1.39.76-2.09.83-2.28,2.34-2.94,4.57-2a10.79,10.79,0,0,1,1.67,1c1.14.77,1.43.67,1.59-.73a23.81,23.81,0,0,0,0-2.39,2,2,0,0,1,1.45-2,1.86,1.86,0,0,1,2.19.88c2.12,3,5,5.23,7.1,8.25a7.14,7.14,0,0,0,3,2.12,55.46,55.46,0,0,0,20,4.86c14.94,1.26,29.26-1.66,43.31-6.3a50.26,50.26,0,0,1,14.71-3c.18-.56-.22-.63-.44-.74-19.56-9-31.52-25-40.35-43.94-4.55-9.8-6.88-20.25-9-30.78-3.14-16-4.49-32.15-5.42-48.38-.92-15.9-1.38-31.8-1.12-47.71a75.51,75.51,0,0,1,3.22-20.52c3-9.94,11.34-12.42,18.73-11.93a40,40,0,0,1,16.94,5.18c1.6.9,3.23,1.75,4.87,2.52a69.76,69.76,0,0,0,13.87,5.05,45.55,45.55,0,0,0,6,.88c1.08.12,1.11-.24,1-1.11a28.35,28.35,0,0,1,1.18-12.8c1.69-4.76,4.86-7.1,9.93-7.29a24.37,24.37,0,0,1,13.43,3.22,218.93,218.93,0,0,1,24.43,16.52,222.17,222.17,0,0,0,30.09,19.8c10.88,6,20.69,13.54,30.26,21.44,7.29,6,11.35,13.87,13.87,22.79a95,95,0,0,1,2.72,17.66c.66,8.23.67,16.49,1.1,24.73a38.13,38.13,0,0,0,1.89,9c.14.45.25.92,1,.91,8.34-.12,12.19,5.44,14.64,12.2,2.3,6.31.94,12.75-1.15,18.91a5.27,5.27,0,0,1-2.33,2.64,1.51,1.51,0,0,0-.86,1.41c0,10.35-3.61,19.32-10,27.4-8.66,10.93-20,17.29-33.39,20.4a142.2,142.2,0,0,1-25.13,3.9,1.58,1.58,0,0,0-1.59,1,14.09,14.09,0,0,1-2.88,4.24,1.56,1.56,0,0,0-.47,1.26,151.45,151.45,0,0,1-.49,16.08,1.07,1.07,0,0,0,.75,1.27,22,22,0,0,1,5.12,4.08c1.37,1.46,1,3.51,1.08,5.28a21.92,21.92,0,0,1-.55,6.51,4.89,4.89,0,0,0,.22,2.18,16.82,16.82,0,0,1-2.28,12.18,14,14,0,0,1-9.55,5.79,8.18,8.18,0,0,1-1.47.17c-.74,0-1.2.17-1.27,1.06a2.06,2.06,0,0,1-.88,1.34,4.57,4.57,0,0,0-1.88,3.69,29.55,29.55,0,0,1-1,5.84c-1.68,8.22-3.61,16.39-6,24.41a51.14,51.14,0,0,1-8.83,16.81,128.21,128.21,0,0,1-14.23,15.24A9.51,9.51,0,0,1,137,354c-5.9-.35-11.82-.44-17.71-1-1.09-.1-2.17-.22-3.26-.35a4.75,4.75,0,0,1-3.78-2.6c-.36-.69-.62-.86-1.4-.37a6.69,6.69,0,0,1-7.08,0A14.14,14.14,0,0,1,97,342.6,65.36,65.36,0,0,1,92.24,327a21.58,21.58,0,0,1,1-10.08c.87-2.65,3.17-3.54,5.61-3.78a31.83,31.83,0,0,0,13.87-4.64c.58-.34.41-.6.22-1a75,75,0,0,1-5.44-17.89,43,43,0,0,1,.27-13.81,4.81,4.81,0,0,0-.23-2.83,9.94,9.94,0,0,1-.2-5.05,80.28,80.28,0,0,1,2-11.72,4.47,4.47,0,0,1,1.27-2.33,3,3,0,0,0,.75-2.19,147.2,147.2,0,0,1,3-14.56,18,18,0,0,1,1.26-3.35C116.86,231.1,118.1,228.45,119.41,225.66Z"/><path class="cls-2" d="M120.55,24.83c6.41.6,12.76-.82,19.17-.69a33.48,33.48,0,0,1,17.05,5l1.15.7c.38.21.79.6,1.14,0s-.1-.72-.39-1c-5-4.93-10.86-8.22-18.27-8-3.22.09-6.45,0-9.65.37-1.76.2-1.77.15-2-1.44-.49-3.26-1.42-6.47-1.26-9.83a27.72,27.72,0,0,1,.81-5.12,1.83,1.83,0,0,1,1.56-1.47,21,21,0,0,1,12.61,2.89A226,226,0,0,1,166.29,22.4a223.12,223.12,0,0,0,30.07,19.83,184.87,184.87,0,0,1,31.13,22.22c1.26,1.12,2.52,2.38,3.66,3.5-3.9,0-7.69.08-11.48,0-19.21-.47-37.18,4.22-54.52,11.82a56.29,56.29,0,0,0-13.1,7.92,18.5,18.5,0,0,0-5.81,8.48,42.19,42.19,0,0,0-1,26.05c2.41,8.46,4.67,17,9.92,24.23a78.62,78.62,0,0,0,5.89,7.12c3.49,3.78,7.92,5.48,12.89,6.12a40.35,40.35,0,0,0,20.3-2.58,131.29,131.29,0,0,0,17.59-8.3,66.92,66.92,0,0,1,18.2-7.17,6.06,6.06,0,0,1,1-.18h1.78l-2.09,1.7c-7.57,6.17-7.13,17.15,1.18,22.36a41.86,41.86,0,0,0,22.61,7c1.26,0,1.6.38,1.49,1.61a42,42,0,0,1-9.08,22.27c-8.11,10.31-18.64,16.48-31.27,19.37-1.06.24-2.13.45-3.2.68a82.3,82.3,0,0,1-18.67,1.26c-4.12-.25-8.23-.44-12.34-.75-2.33-.18-4.66-.19-7-.32A190.73,190.73,0,0,1,146,212.43a170.16,170.16,0,0,1-22.9-6.6c-9.58-3.41-17.65-9.12-25.53-15.37-9-7.2-15.13-16.52-19.62-27-1-2.28-2-4.54-3.13-6.77-2.52-5-3.06-10.46-4-15.85-2-11.81-3.78-23.66-5-35.56C65,97.18,64.32,89,63.32,80.88c-1.73-13.58-1.1-27.2-1-40.8A93.37,93.37,0,0,1,64.79,19.9,21.15,21.15,0,0,1,68.33,12c3.51-1.57,7.15-1.39,10.82-.81a40.19,40.19,0,0,1,11.93,4c9.44,4.78,18.51,10.23,27.74,15.44.52.29,1,.65,1.49,1a46.84,46.84,0,0,0,5.27,3.28c.46.25,1,.6,1.48.09s0-.94-.22-1.37a19.51,19.51,0,0,0-4.42-6.09C121.59,26.8,120.62,26.09,120.55,24.83Z"/><path class="cls-3" d="M240.7,90.9c-6.63-1-10.93,2.74-10.94,9.31a96.08,96.08,0,0,0,2.11,22.69c.64,2.69,1.26,5.45,3.39,7.57a9.46,9.46,0,0,0,8.13,2.66c.54-.07.71.06.79.51,0,.14.12.28.15.42.64,2.26.62,2.23-1.65,3a17.28,17.28,0,0,1-7.62,1.26c-5.88-.67-11.18,1.71-16.51,3.78-5.55,2.11-10.43,5.56-15.8,8s-10.84,5-16.72,6.13A31.91,31.91,0,0,1,168,155c-2.86-1.14-4.78-3.52-6.77-5.73-6.61-7.26-9.88-16.15-12.37-25.43-1.26-4.85-2.46-9.72-2.08-14.79a38.55,38.55,0,0,1,3.67-14.45,14.83,14.83,0,0,1,4.91-5.32,81.93,81.93,0,0,1,23.07-11.2,163.75,163.75,0,0,1,24.21-5.91,70.25,70.25,0,0,1,7.68-.71c3.17-.13,6.3-.34,9.51-.22,4.17.14,8.33.36,12.47.59a2.26,2.26,0,0,1,2.06,1C237.64,78.34,239.23,84.51,240.7,90.9Z"/><path class="cls-2" d="M134.3,336.68a121.16,121.16,0,0,1-13.46,4.7c-1.79.58-3.6,1.15-5.41,1.65a10.34,10.34,0,0,0-5.26,3.21,3.26,3.26,0,0,1-3.92.88,9.23,9.23,0,0,1-5.22-4.24,47.69,47.69,0,0,1-5.56-18.22,7.75,7.75,0,0,1,0-1.18c.27-.71,1-.76,1.56-1,4.51-1.79,9.13-3.29,13.68-5a5.87,5.87,0,0,0,3.78-2.92c.34-.74.92-.61,1.49-.26a9.68,9.68,0,0,1,2.52,2.34,10.93,10.93,0,0,0,3.94,3.79c.22.26.46.5.67.78.65.87,1.43,1.5,2.52.75s.72-1.79.06-2.72-1.44-2.12-2.16-3.18a79.4,79.4,0,0,1-8.57-19.9,66.44,66.44,0,0,1-1.34-10.79c-.1-1.26-.1-2.52-.24-3.7-.07-.65-.39-1.53.68-1.81,7.36,6.31,16,9.51,25.41,11.26a77.76,77.76,0,0,0,21.81.57c3.36-.31,6.74-.62,9.91-2.31a9.81,9.81,0,0,1-.48,4c-1.55,8.08-3.53,16.07-5.73,23.95-2.4,8.63-7.18,15.85-13.18,22.37-2.76,3-5.66,5.86-8.55,8.74a7.35,7.35,0,0,1-6.58,2.28c-2.75-.36-5.56-.11-8.32-.44-.44-.88.33-1.26.78-1.7a110.75,110.75,0,0,1,9.85-8.11c3.2-2.33,6.39-4.68,9.64-6.92a101.84,101.84,0,0,0,8.72-5.69,11,11,0,0,0,4.57-9.64,85.69,85.69,0,0,0-2.08-16.81,1.37,1.37,0,0,1,.71-1.8c1.42-.91,2.75-2,4.08-3,.84-.64,1.27-1.49.56-2.43s-1.65-.74-2.52-.12-2,1.49-3,2.25c-.54.41-.87.4-.93-.39a9.08,9.08,0,0,0-.28-1.47,1.54,1.54,0,0,0-1.68-1.38l-.13,0a1.52,1.52,0,0,0-1.3,1.7,1.16,1.16,0,0,0,0,.18,60.61,60.61,0,0,0,1.36,7.45,87.29,87.29,0,0,1,2,15.77,7.7,7.7,0,0,1-3.33,7.07,35.26,35.26,0,0,1-5.81,3.85,33.93,33.93,0,0,0-9.08,4C138.44,334.42,136.37,335.56,134.3,336.68Z"/><path class="cls-4" d="M68.33,12a22.65,22.65,0,0,1-1.19,2.88c-2.32,4-2.64,8.46-3.29,12.84-2,13.48-1.1,27.05-1.13,40.58a105.63,105.63,0,0,0,1.35,14.43c.46,3.33.65,6.69,1,10.09s.82,6.76,1.09,10.15c.32,3.78.78,7.47,1.26,11.18q.93,6.91,1.91,13.8c.8,5.42,1.76,10.82,2.52,16.23a47.36,47.36,0,0,0,4.13,14c2.12,4.32,4.06,8.73,6.31,13a54.45,54.45,0,0,0,11.28,15,145.92,145.92,0,0,0,14.3,11.35c5.27,3.78,11.21,6.11,17.17,8.41a157.52,157.52,0,0,0,27.74,7.35,160.79,160.79,0,0,0,17.74,2.52c3.56.25,7.11.48,10.67.58,6.23.18,12.44,1.12,18.69.83,3.78-.17,7.48-.57,11.23-.84h1.34a78.39,78.39,0,0,1-11.64,2.33,189.49,189.49,0,0,1-30.49,1.5,164.55,164.55,0,0,1-44.13-6.81,5.44,5.44,0,0,1-.65-.3c-1.62-.73-3.31-1.26-5-1.82A105.23,105.23,0,0,1,110.38,207c-.39-.19-.73-.52-1.26-.42a65,65,0,0,1-21.75-17.51,108.5,108.5,0,0,1-22.14-48.37,324.31,324.31,0,0,1-5.42-38.88Q58.66,86,58.06,70.11c-.38-10.63-.53-21.26-.24-31.9A59.48,59.48,0,0,1,61.49,19,10.44,10.44,0,0,1,68.33,12Z"/><path class="cls-2" d="M142.66,224.12a104.08,104.08,0,0,1,13.11,4.3A42.08,42.08,0,0,0,181,230.77c.34-.08,1.1-.61,1.06.38-.14,3.46.26,6.93-.27,10.38-.79-.9-.41-2-.4-3a2,2,0,0,0-1.57-2.16c-3.62-1.34-6.64-.37-9.52,2-4.42,3.57-6.12,8.55-7.57,13.71a4.27,4.27,0,0,1-.38,1.26h-.29c-2.75,0-4.07-1.42-4.78-4a170.22,170.22,0,0,1-3.56-16.87,4.58,4.58,0,0,0-.14-.89c-.22-1.12-.52-2.29-2-2s-1.36,1.39-1.18,2.52c.4,2.53.82,5,1.26,7.48a86.42,86.42,0,0,0,4.61,16.39c.56,1.43,1.64,1.77,2.75.75a1.27,1.27,0,0,1,1.15-.4c4,.4,4,.42,6,3.91,2.76,4.86,3.31,10.09,3.06,15.54a1.44,1.44,0,0,1-1,.08c-4.21-.94-8.52-.35-12.77-.81a72,72,0,0,1-9.61-1.16c-6-1.53-9.7-5.58-11.47-11.44a54.58,54.58,0,0,1-1.49-7.91c-1.06-7.18-2.27-14.33-3.29-21.52a35.33,35.33,0,0,1-.14-5,1.89,1.89,0,0,1,1.66-2,20.45,20.45,0,0,1,2.79-.52C136.8,225.13,139.7,224.46,142.66,224.12Z"/><path class="cls-5" d="M22.23,210.24a16.46,16.46,0,0,1,3.71,4c2.06,3.28,5.29,4.7,8.62,6a55.43,55.43,0,0,0,16.32,3.64,98.93,98.93,0,0,0,16.95.19,135.4,135.4,0,0,0,24.43-4.9c4.3-1.2,8.39-3.08,12.83-3.78a60.35,60.35,0,0,1,14.08-.72c2.17.16,4.25,1.26,6.39,1.9,2.8.81,5.63,1.54,8.83,2.38q-5,.48-10,1.45c-4.94,1.26-9.49,3.47-14.21,5.31-5,1.93-9.49,4.77-14.62,6.31a73,73,0,0,1-16.4,2.87c-4.8.3-9.6.56-14.42.56a92.34,92.34,0,0,1-32.69-6.22c-8.31-3.14-16.53-6.49-24.72-10Q7,219.15,6.7,219a1.9,1.9,0,0,1,1.63-1c3.06,0,4.51-1.89,5.42-4.47.63-1.79.68-1.86,2.22-.57,4.28,3.54,8.46,7.17,12.91,10.5a50.37,50.37,0,0,0,21.94,9.08,1.56,1.56,0,0,0,1.92-1.07,2.74,2.74,0,0,0,0-.28c.16-1.15-.57-1.7-1.65-1.88a50.48,50.48,0,0,1-15-5c-4-2-7.33-5-10.88-7.78-.95-.72-1.86-1.49-2.8-2.22s-1.58-1.63-.67-2.86A6.28,6.28,0,0,0,22.23,210.24Z"/><path class="cls-6" d="M261.41,155.52a29.26,29.26,0,0,1-1.39,8.91c-.86,3.31-4.38,5.29-8.44,4.78a42.21,42.21,0,0,1-18.34-6.77,10.2,10.2,0,0,1-2.91-14.13,10.39,10.39,0,0,1,2.35-2.51,28.11,28.11,0,0,1,13.17-6.13c6.62-1,9.23-.19,13.29,6.31A16.59,16.59,0,0,1,261.41,155.52Z"/><path class="cls-5" d="M172.9,283.72a5,5,0,0,1-2.16,1.74c-3.06,1.88-6.53,2.22-10,2.52a80.91,80.91,0,0,1-12.93.31,55.65,55.65,0,0,1-26-7.47,61.72,61.72,0,0,1-9.09-7.18c-2-1.81-1.58-4.2-1.26-6.42a66.53,66.53,0,0,1,1.68-9.5c.16-.58.17-1.33.8-1.46s.82.64,1.11,1.06A26.92,26.92,0,0,0,127,267.05a2.41,2.41,0,0,1,1.34,1.11c3.9,7.63,10.3,11.86,18.55,13.52a66.12,66.12,0,0,0,16.24,1.51c.88,0,1.77-.2,2.66-.25a3.77,3.77,0,0,1,2.93.64c.72.61,1.82.27,2.75.14A2.62,2.62,0,0,1,172.9,283.72Z"/><path class="cls-4" d="M142.66,224.12a27.22,27.22,0,0,1-7.07,1.52l-4.53.73c-.93.15-1.26.68-1.26,1.64a55.54,55.54,0,0,0,1,10.61c.85,5.66,1.69,11.35,2.6,17,.57,3.52,1,7.08,2.78,10.25a14.6,14.6,0,0,0,11.22,7.86A121.8,121.8,0,0,0,164.28,275a13.28,13.28,0,0,1,4.95.86,6.76,6.76,0,0,1-.9,3.25c-.2.52-.64.54-1.1.59a59,59,0,0,1-22.55-1.83,19.94,19.94,0,0,1-12.9-10.08,34.15,34.15,0,0,1-3.37-10.95,108.78,108.78,0,0,1-1.57-17.47,39.47,39.47,0,0,1,.54-6.52,4.73,4.73,0,0,0,.06-1.19,1.46,1.46,0,0,0-1.26-1.46,1.37,1.37,0,0,0-1.7.94l0,.1c-.27,1.09-.41,2.23-.58,3.36a5.88,5.88,0,0,1-.26,1.91c-.72-.76-.37-1.66-.34-2.4-1.64,5.59-3.28,11.29-5,16.93a3.35,3.35,0,0,1-1.48,2.13,3.1,3.1,0,0,1-1-3.27c.69-4.06,1.53-8.07,2.53-12.07a10.11,10.11,0,0,1,.55-1.69c1.74-4,3.88-7.8,5.44-11.88.17-.46.54-.54.92-.63a81.11,81.11,0,0,1,12.53-1.45,1,1,0,0,1,.57.12A23.72,23.72,0,0,0,142.66,224.12Z"/><path class="cls-7" d="M61.46,238.48c1.74-.17,3.46.27,5.18.26a155.51,155.51,0,0,0,15.56-.86A4.8,4.8,0,0,1,83,238a62.94,62.94,0,0,1-10.34,2.88,118.84,118.84,0,0,1-12.46,1.72c-9.13.74-18.26,1-27-2.65-6.79-2.84-13-6.49-17.75-12.36a9.21,9.21,0,0,0-1.89-1.39l.45-.55c2.93,1.18,5.85,2.35,8.83,3.51,8.57,3.38,17.17,6.71,26.33,8.26,2.34.39,4.7.6,7.06.78.58,0,1.26-.18,1.72.26-.44.34-.89.15-1.26.14.27.19.71,0,1.06.12,1.76.12,3.52,0,5,.23.5,0,.3-.36.35-.17s0,.07-.09.07C62.42,238.79,61.77,239.3,61.46,238.48Z"/><path class="cls-8" d="M162.32,253.35a1.11,1.11,0,0,1-.17-.85c1.19-3.64,1.88-7.56,4.33-10.62s5-6.07,9.32-6.54a9.74,9.74,0,0,1,5.51,1.27c.5.26.39.74.4,1.18v3.71L181.08,252c0,.26.1.63-.3.73a1.09,1.09,0,0,1-1-.41c-1.52-1.45-3.11-2.8-5.43-2.59a9.5,9.5,0,0,0-6,2.25A5.73,5.73,0,0,1,162.32,253.35Z"/><path class="cls-9" d="M241.69,100c.53,7.42.93,14.83,1,22.27a32.19,32.19,0,0,0,.52,6.93c.24,1.05-.28.95-1,.9-4.13-.27-6-2.8-6.74-6.52-.14-.54-.34-1.07-.44-1.63a37.62,37.62,0,0,1,.13-10.49c.21-1.26.64-1.94,2-2.08,1.6-.15,2.17-1.08,1.93-2.71a6.69,6.69,0,0,0-.76-2.39,2.2,2.2,0,0,1,.23-2.86C239.38,100.52,240.22,99.53,241.69,100Z"/><path class="cls-4" d="M148.59,333.63c-1.26,1.69-3.1,2.52-4.72,3.78A156,156,0,0,0,129.3,349c-.42.39-1,.72-1,1.42a105.26,105.26,0,0,1-11.35-.82c-1.36-.17-1.81-1.1-2.24-2.1s.44-.84.91-1l11.61-3.65A117.3,117.3,0,0,0,147,334.4,10.5,10.5,0,0,1,148.59,333.63Z"/><path class="cls-5" d="M185.74,223.3a6.87,6.87,0,0,1-5.67,4.38,37.33,37.33,0,0,1-21.89-1.8c-4.23-1.72-8.64-2.93-12.88-4.59A201.93,201.93,0,0,0,185.74,223.3Z"/><path class="cls-10" d="M170.41,254.58a6,6,0,0,1,5.05-1.38c-.76,2.25-.24,3,2.21,2.87a11.43,11.43,0,0,1,7.65,1.84,5.07,5.07,0,0,1,1.9,2c1.75,4.38,2.61,8.82.68,13.41a7.83,7.83,0,0,1-4.73,1.56c-.28-.64.15-1.13.38-1.67a15.27,15.27,0,0,0,1.34-6.21,5,5,0,0,0-4.78-4.91,10.4,10.4,0,0,0-3.24.3,1.26,1.26,0,0,1-1.64-.63,22.24,22.24,0,0,0-4.63-6.68A.92.92,0,0,1,170.41,254.58Z"/><path class="cls-2" d="M241.69,100a4.92,4.92,0,0,0-2.37,1.15c-.85.88-1.63,1.73-.56,3a4.94,4.94,0,0,1,.75,2.39c.36,2.28-.39,3.24-2.71,3.33-.72,0-1,.2-1.14.95a50.44,50.44,0,0,0-.54,11.25c-.08.18-.15.18-.23,0a103.5,103.5,0,0,1-1.81-22.22,5.74,5.74,0,0,1,4.28-5.9,3.09,3.09,0,0,1,3.92,1.9,3.16,3.16,0,0,1,.17,1.05C241.5,97.91,241.6,99,241.69,100Z"/><path class="cls-2" d="M116.65,253.11c2.41-4.92,3.42-10.29,5-15.45.47-1.45.91-2.9,1.49-4.74.54,1.43.13,2.53.35,3.52a119,119,0,0,0,2.53,25.94C121.73,260.2,119.2,256.64,116.65,253.11Z"/><path class="cls-11" d="M170.41,254.58a15.55,15.55,0,0,1,4.77,6.31c.46,1.12,1,1.41,2.19,1.08,3.42-.92,5.75,0,7.42,2.71.92,1.52.59,3.18.35,4.77a15.62,15.62,0,0,1-1.92,5.42,4.52,4.52,0,0,1-3.68,3.22,5.65,5.65,0,0,1-4.82-.94c-.69-1.36-.49-2,.84-2.52a4.93,4.93,0,0,1,2.18-.41,2.75,2.75,0,0,0,2.61-1.64,12.5,12.5,0,0,0,1.47-5,2.13,2.13,0,0,0-1.92-2.34,2.18,2.18,0,0,0-.51,0,10.61,10.61,0,0,0-2.89.64c-1.71.61-3.05.18-3.65-1.5a21,21,0,0,0-4.23-6.93c-.31-.36-.7-.76-.33-1.26Z"/><path class="cls-4" d="M122.42,320.48c-1.48.15-2.19-1-3-1.91a16.53,16.53,0,0,0-3.63-3.88c-.38-.24-.71-.64-1,.14-.6,1.75-2.12,2.42-3.67,3-5.21,1.91-10.43,3.78-15.64,5.68a15,15,0,0,1,.55-4.26c.44-2.08,1-2.63,3.17-2.9a61.36,61.36,0,0,0,6.16-1.06,24.9,24.9,0,0,0,7.33-3.18c2.61-1.53,2.65-1.5,4.42,1S120.67,318,122.42,320.48Z"/><path class="cls-10" d="M168.28,256.16c-.07.69.42,1.07.85,1.49a13.21,13.21,0,0,1,3.68,5.82c.56,1.93,1.76,3,4.17,1.87a7.28,7.28,0,0,1,2.52-.57,2.62,2.62,0,0,1,2.72,2.52,3.08,3.08,0,0,1,0,.61,15.28,15.28,0,0,1-1.56,4.92,2.71,2.71,0,0,1-2.93,1.77,4.4,4.4,0,0,0-2,.34c-1,.36-1.47,1-.85,2a2.27,2.27,0,0,1-2.42.32c.27-6.3-.12-12.52-3.26-18.23-.21-.37-.21-.86-.61-1.11C168.58,257.31,167.07,257,168.28,256.16Z"/><path class="cls-4" d="M114,279.94a.88.88,0,0,0-.34.92c.45,8.91,1.17,17.75,5.44,25.87,1.45,2.76,2.74,5.61,4.09,8.43a6.16,6.16,0,0,1,.28,1c-11.09-12-14.44-27.9-12.49-38.87Z"/><path class="cls-4" d="M129.85,3.37a2.41,2.41,0,0,0-1,1.39A25.75,25.75,0,0,0,129,18.23a4,4,0,0,1,.24,1.45c-.16,1.26.39,1.7,1.57,1.59a31,31,0,0,1-7.39.39c-.57,0-.75-.33-.81-.84a24.92,24.92,0,0,1,1.6-14A6.09,6.09,0,0,1,129.85,3.37Z"/><path class="cls-4" d="M120.55,24.83c1.26,2.06,3.26,3.42,4.65,5.35a28.65,28.65,0,0,1,2.19,3.9,1,1,0,0,1,0,1.26,1.06,1.06,0,0,1-1.36.15,19,19,0,0,1-5.75-3.78c1.83.78,3.42,2,5.15,2.93.4.22.9.81,1.26.28s-.34-.83-.68-1.11q-6-4.64-12-9.25c0-.57.3-.42.6-.32Z"/><path class="cls-12" d="M172.44,277.25a7.07,7.07,0,0,1,2.42-.31c3.52,1.69,6,1.17,8.36-2.07l4.72-1.5c-1.15,3.58-5.3,6.31-9.85,6.56-2.22.11-4.43.26-6.78.41Z"/><path class="cls-13" d="M134.3,336.68a65.29,65.29,0,0,1,8.44-5.2,14.82,14.82,0,0,1,6.79-2.3A104,104,0,0,1,134.3,336.68Z"/><path class="cls-14" d="M188.43,256c-1-.61-2-1.26-3-1.76-.58-.3-.77-.59-.57-1.26a10.28,10.28,0,0,0,.18-2.07C187,252.2,189,253.2,188.43,256Z"/><path class="cls-15" d="M109.21,206.51c.19-.25.4-.2.66-.09a151.13,151.13,0,0,0,15.66,6.39h.11a1.22,1.22,0,0,1,0,.27A70.53,70.53,0,0,1,109.21,206.51Z"/><path class="cls-16" d="M61.46,238.48c.48.56,1.26,0,2,.61-2.1-.2-4,.3-5.87-.32.75-.4,1.61,0,2.38-.27Z"/><path class="cls-17" d="M59.94,238.5c-.75.54-1.59.12-2.39.27H56.41v-.25l1.48-.1Z"/><path class="cls-18" d="M234.87,122a.28.28,0,0,0,.22,0,2.2,2.2,0,0,1,.33,1.52A2.28,2.28,0,0,1,234.87,122Z"/><path class="cls-19" d="M168.56,257.91a.92.92,0,0,1,.6,1.11A1.78,1.78,0,0,1,168.56,257.91Z"/><path class="cls-20" d="M114.61,24.18l-.61.31c-.25-.06-.58-.3-.43-.44A1,1,0,0,1,114.61,24.18Z"/><path class="cls-21" d="M75.48,34.61V32c0-.4,0-.84.51-.94s.69.27.79.69c.75,3.39,2.07,6.63,2.52,10.09.33,2.32,1.26,3.92,3.66,4.45,3.25.72,5.85,2.91,8.94,4,.34.11.65.34.58.76s-.57.46-1,.41c-4.5-.63-9.06-1.09-11.68-5.65a6.64,6.64,0,0,0-1.19-1.12,8.12,8.12,0,0,1-3-6.3A30.7,30.7,0,0,0,75.48,34.61Z"/><path class="cls-22" d="M212.55,199.25A24.26,24.26,0,0,1,202,197.9c-.79-.25-1.8-.49-1.55-1.63s1.26-1,2.18-.83c4.17.58,8.36,1.1,12.53,1.64a6,6,0,0,1,1.18.19,1,1,0,0,1,.89,1h0a.93.93,0,0,1-.93.93h-.05C214.79,199.25,213.36,199.25,212.55,199.25Z"/><path class="cls-23" d="M175.78,107.8a31.75,31.75,0,0,0-5.58,5.71,20.23,20.23,0,0,1-2.52,2.71,6,6,0,0,1-8.36-1,6.19,6.19,0,0,1-.41-.59,16.39,16.39,0,0,1-1.62-9.54c.56-6.73,4.3-11.79,9.64-15.33a48.69,48.69,0,0,1,13.59-5.93A54.49,54.49,0,0,1,187.26,82c2.73-.42,5.52-.32,8.24-.85s5.35-1,8-1.35a81,81,0,0,1,9.08-.14c.18,0,.51.08.53.18a27.08,27.08,0,0,1,.76,3.44c.1.86-.68,1.26-1.26,1.65a67,67,0,0,1-9.35,4.21,23.81,23.81,0,0,0-7.07,4.17A59.13,59.13,0,0,1,190,97.4a75.39,75.39,0,0,0-7.42,5.91.9.9,0,0,1-.53.48,10.47,10.47,0,0,0-5.87,3.93C176.11,107.81,175.93,107.81,175.78,107.8Z"/><path class="cls-1" d="M175.78,107.8c1.49-2.69,4-3.79,6.82-4.52,3,0,6-.11,8.75,1.26,4.29,2,6.9,5.65,8.74,9.76a45.26,45.26,0,0,1,4.15,13.87,29.31,29.31,0,0,1-.26,9.93c-1.15,4.65-5.89,8.19-10.85,8.51a13.51,13.51,0,0,1-10.7-4.13c-4.63-4.35-6.53-10-8.15-15.77C172.48,120.23,173.49,114,175.78,107.8Z"/><path class="cls-23" d="M166.18,139.5c-1,1-.13,1.52.47,1.95a58.5,58.5,0,0,1,7.3,6.77,9.67,9.67,0,0,1,1.38,1.75,1.76,1.76,0,0,1-.28,2.48,1.71,1.71,0,0,1-1.21.38,6.31,6.31,0,0,1-5.16-1.82,25.53,25.53,0,0,1-5.25-7.71c-1.15-2.27-.53-3.21,2-3.63C165.71,139.63,166,139.55,166.18,139.5Z"/><path class="cls-24" d="M253.85,154a4.84,4.84,0,0,1-5-4,4.35,4.35,0,0,1,3.53-5c3.58-.92,7.56.2,7.17,4.77C259.39,152.36,257.2,154,253.85,154Z"/><path class="cls-9" d="M194,111c2,1.51,2.84,3.78,3.71,6A43.45,43.45,0,0,1,201,127.71a23.9,23.9,0,0,1-.21,9.82c-1,3.41-3.78,4.88-7,5.66-.53.13-1.06.19-1.6.29-.49-.24-1.08,0-1.56-.34s-.82-.2-1.26-.34a5.23,5.23,0,0,1-2.53-1.34c-4.14-3.39-5.63-8.05-6.08-13.14a6,6,0,0,1,0-3.09c.49-1,1.84-.76,2.77-1.16a4,4,0,0,0,2.58-3.78,3.59,3.59,0,0,0-2.59-3.78c-1.26-.43-1-1-.44-1.75a10.07,10.07,0,0,1,3.93-2.89C189.21,111,191.54,110.16,194,111Z"/><path class="cls-2" d="M194,111c-.43.68-.87,0-1.26,0a12.5,12.5,0,0,0-10.09,4.91c2.37.42,3.71,1.66,3.86,3.93a4.25,4.25,0,0,1-3.56,4.84l-.22,0c-1.67.22-1.83.83-1.74,2.34.3,5.57,1.93,10.51,6.09,14.42,0,.29,0,.43-.36.33A16.25,16.25,0,0,1,182,137a33.38,33.38,0,0,1-5.27-17.89,26.89,26.89,0,0,1,1.67-8.74,4.9,4.9,0,0,1,3.78-3.54c4.28-.82,8.21-.24,11.35,3.2A1.67,1.67,0,0,1,194,111Z"/><path class="cls-25" d="M186.73,141.83l.35-.33,2.38,1.26c0,.29,0,.45-.35.33A4.2,4.2,0,0,1,186.73,141.83Z"/><path class="cls-26" d="M189.11,143l.35-.33,1.18.3c.1.28,0,.39-.29.34S189.46,143.35,189.11,143Z"/><path class="cls-27" d="M190.37,143.34l.29-.34,1.48.54C191.52,143.52,190.9,143.77,190.37,143.34Z"/></g></g></g></g></svg>