<svg xmlns="http://www.w3.org/2000/svg" width="281.49" height="362.72" viewBox="0 0 281.49 362.72"><defs><style>.cls-1{fill:#17458b;}.cls-2{fill:#eff2fc;}.cls-3{fill:#2d7dca;}.cls-4{fill:#ced1d9;}.cls-5{fill:#2283f0;}.cls-6{fill:#fefefe;}.cls-7{fill:#323641;}.cls-8{fill:#2667ad;}.cls-9{fill:#fed300;}.cls-10{fill:#fef218;}.cls-11{fill:#3145a4;}.cls-12{fill:#d9b500;}.cls-13{fill:#2384f0;}.cls-14{fill:#fcfdfe;}.cls-15{fill:#dce2ef;}.cls-16{fill:#4496f1;}.cls-17{fill:#f3e082;}.cls-18{fill:#dfe4f1;}.cls-19{fill:#358bec;}.cls-20{fill:#bfd3ec;}.cls-21{fill:#abc9ed;}.cls-22{fill:#18458c;}.cls-23{fill:#18468c;}.cls-24{fill:#1e4a8f;}.cls-25{fill:#59a0dc;}.cls-26{fill:#abacb3;}.cls-27{fill:#318cf1;}.cls-28{fill:#5aa2f4;}.cls-29{fill:#f7fafe;}.cls-30{fill:#d3dbef;}</style></defs><title>资源 6</title><g id="图层_2" data-name="图层 2"><g id="图层_1-2" data-name="图层 1"><g id="图层_2-2" data-name="图层 2"><g id="图层_1-2-2" data-name="图层 1-2"><path class="cls-1" d="M194.25,273a91,91,0,0,0-3.11,9.23c-.4,1.17.24,2.45.28,3.7a6.62,6.62,0,0,1-.53,3.92c-.26.44-.06.85.08,1.26a134.9,134.9,0,0,1,4.84,21.76,10.4,10.4,0,0,1-3.43,10.09,38,38,0,0,1-12.22,6.94,18.59,18.59,0,0,1-5.61,1.89c-.45,0-.55.4-.72.69-1.8,3-3.87,5.9-5.89,8.82a40.24,40.24,0,0,0-5,10.28,13.79,13.79,0,0,0-.78,4.81c.08,2.93-1.17,4.49-4,5.26a42.35,42.35,0,0,1-14.06.85A35.16,35.16,0,0,1,128.28,358c-.64-.38-1.26-.76-1.91-1.17-4.17-2.9-5.33-6.55-3.55-11.35a101,101,0,0,0,3.78-10,3.65,3.65,0,0,0-.29-3,35.94,35.94,0,0,1-4.4-17.87,23,23,0,0,1,1.94-8.95,2,2,0,0,0-.12-1.94,86.53,86.53,0,0,1-5.19-13.29c-1.17-3.69-.69-7.38-.31-11.08.33-3.17.71-6.31,1.1-9.47a2.55,2.55,0,0,0-.34-1.41,24.09,24.09,0,0,1,.37-22.09c1.53-3,3.06-5.92,4.69-8.83a34.58,34.58,0,0,1,8.21-9.49,4.52,4.52,0,0,0-2.39.14,12.45,12.45,0,0,0-2.36.35c-6.39,1.79-12.76,1.13-19.2.14-4.72-.73-9.27-2.31-14-2.68-8.54-.66-16.6.77-23.87,5.65-8.45,5.68-16.81,11.53-25.76,16.39a142,142,0,0,1-32.4,13.34A3.66,3.66,0,0,1,8,259.67a13.54,13.54,0,0,1-1.87-6.22c-.22-2.27-.44-4.55-.56-6.83A1.42,1.42,0,0,0,4.27,245C2,244.54.87,242.85.21,240.84a2.61,2.61,0,0,1,1.37-3.43,2.52,2.52,0,0,1,.94-.21c4.83-.61,9.64-1.36,14.44-2.11s9.73-1.33,14.56-2.3a24.32,24.32,0,0,0,13.76-7.44,52.85,52.85,0,0,1,21.58-13.87,52,52,0,0,1,25-2.44c12.16,1.59,24.3,3.33,36.41,5.31a38.32,38.32,0,0,0,4.91.18c0-.47-.34-.45-.55-.54-22.77-9-38.17-25.22-47.16-47.76a197.1,197.1,0,0,1-11.71-44.06C71.52,107.51,69.83,92.81,70.12,78c.26-13.47,1.26-26.92,1.34-40.35a70.78,70.78,0,0,1,2.72-17.17C76,13.73,80.48,10.22,87.2,9c6.09-1.15,11.83.32,17.59,1.93,6.08,1.7,11.43,5,17,7.78a4.84,4.84,0,0,0,3.29.72,12.94,12.94,0,0,1,4.24.59c.88.15,1.26.1,1.26-1.07a52.71,52.71,0,0,1,.1-10,8.85,8.85,0,0,1,4.44-6.55c4.41-2.77,9.17-2.87,14.07-1.62A34.3,34.3,0,0,1,161.29,6.4C170.55,13.26,179.87,20.06,189,27a88.84,88.84,0,0,0,21.14,11.35c12,4.77,22.19,12.32,31.33,21.34,6,5.93,11.35,12.38,14.94,20.17a50.77,50.77,0,0,1,4.69,19.25c.27,5.73.15,11.43,0,17.15a81.14,81.14,0,0,0,.89,14.27c.58,3.78,3.21,6.17,5.87,8.51a2.44,2.44,0,0,0,1.58.36,9.44,9.44,0,0,1,9.38,6.43,33.05,33.05,0,0,1,2,19.27,8.09,8.09,0,0,1-5.68,6.51,1.26,1.26,0,0,0-1,1.34,44,44,0,0,1-10.66,26.32c-8.38,9.6-18.92,15.25-31.06,18.27A199.61,199.61,0,0,1,208.93,222c-1.26.15-1.79.4-1.63,1.86a5,5,0,0,1-2.6,5.05,1.81,1.81,0,0,0-1,1.66,102.73,102.73,0,0,1-2.22,17.12c-.11.48-.25,1,.48,1.19,5.76,1.35,7.11,6.14,8.31,10.92a19,19,0,0,1-.48,10.59,11.33,11.33,0,0,1-5.16,6.3c-2.88,1.76-7.56.39-9.72-2.73C194.78,273.62,194.74,273.18,194.25,273Z"/><path class="cls-2" d="M139.42,23.51a85.94,85.94,0,0,1,15.13.47,93.46,93.46,0,0,1,10.15,1.4,23.5,23.5,0,0,1,6.85,2.78c.58.33,1.26.95,1.82.13s-.33-1.26-.9-1.73c-4.2-3.38-9.25-4.35-14.39-5-3.42-.48-6.88-.86-10.32-1.26a63.33,63.33,0,0,0-7.42-.08c-1.26,0-1.67-.49-1.82-1.57a25.1,25.1,0,0,1,.3-7.83,28.64,28.64,0,0,1,1.88-6.09,2.15,2.15,0,0,1,1.09-1.34c5.44-.52,10.32,1.26,14.87,3.91,4.85,2.85,9.14,6.52,13.67,9.83,6.1,4.47,12.15,9,18.22,13.48a72.77,72.77,0,0,0,18.13,9.85,91.52,91.52,0,0,1,31,20.17A86.16,86.16,0,0,1,246,69.42a1.68,1.68,0,0,1-1.35.19A155.67,155.67,0,0,0,207.69,72a95.07,95.07,0,0,0-29.34,10.38c-10.85,6.12-16.58,15.48-16.58,28a64,64,0,0,0,14,40c5.76,7.43,13.72,10.08,22.91,9.69,5.17-.24,9.85-2.15,14.54-4.07,6.89-2.81,13.7-5.8,20.32-9.22a53.4,53.4,0,0,1,16.15-5.44,16.19,16.19,0,0,1,3.41-.09,26.35,26.35,0,0,0-2.53,1.8,9.78,9.78,0,0,0-3,11.69,23.18,23.18,0,0,0,8.7,11.09c4.3,2.87,8.75,5.51,14,6.4,1.06.17.73.95.66,1.5a56.72,56.72,0,0,1-1.9,9.31c-2.33,8.6-8,14.84-14.49,20.51-6.69,5.83-14.79,8.82-23.21,11A95.59,95.59,0,0,1,220,217a15,15,0,0,1-4.72,0,42.81,42.81,0,0,0-4.67-.21c-7.35,0-14.69-.47-22-1.11-3.86-.34-7.73-.43-11.6-.72a105.75,105.75,0,0,1-18.15-2.45c-9.45-2.39-18.91-4.89-27.74-8.91-3.53-1.59-7.07-3.19-10.54-4.92s-6.44-4.65-9.24-7.46a83.94,83.94,0,0,1-15.7-22.7,108,108,0,0,1-7.81-23.44,235.48,235.48,0,0,1-4.25-28.59c-.8-7.65-1.51-15.32-2.25-23-.54-5.58-.85-11.18-1.32-16.78a256.32,256.32,0,0,1-.81-28,130.56,130.56,0,0,1,5.34-34.61,2.71,2.71,0,0,1,.72-1.26,22.05,22.05,0,0,1,12.44-.53A63.14,63.14,0,0,1,114,18.2c10.59,5.53,21.44,10.62,31.62,16.84a1.35,1.35,0,0,0,1.52.15,1.08,1.08,0,0,0,.54-1.69,8.58,8.58,0,0,0-1-1.63,40,40,0,0,0-5.82-6.3C140.24,25.05,139.32,24.61,139.42,23.51Z"/><path class="cls-3" d="M263.23,138.87a3.93,3.93,0,0,1-3.23-.27c-1.67-.86-3.68-.58-5.55-.72-5.9-.41-11.35,1.55-16.76,3.51-4.31,1.56-8.22,4-12.38,5.86-7.15,3.2-14.23,6.65-21.81,8.73-8.95,2.52-19.23.25-25.51-8a63.51,63.51,0,0,1-12.31-29,41.49,41.49,0,0,1,.27-16.24,26.4,26.4,0,0,1,10.87-15.66c5.88-4.22,12.61-6.61,19.42-8.82A89.36,89.36,0,0,1,212,74.46c4-.58,8-1,12.09-1.35a100.53,100.53,0,0,1,14.72-.51c3.06.2,6.15,0,9.2.48a2,2,0,0,1,1.51,1,49.94,49.94,0,0,1,7.73,18c.22.93.23,1.75-1.12,1.57-2.43-.33-4,1.08-5.22,2.81a14.6,14.6,0,0,0-2.82,8.62A74.54,74.54,0,0,0,249.56,123a10.76,10.76,0,0,0,5.38,7.5,4.7,4.7,0,0,0,2.17.91c1.93-.14,2.17,1.15,2.64,2.52A13,13,0,0,0,263.23,138.87Z"/><path class="cls-2" d="M138.25,227.39a1.46,1.46,0,0,1,1.12-.3c4.53-.23,9,0,13.56.09,5.31,0,10.29,1.85,15.49,2.52,6.76.79,13.49,1.76,20.28,2.13a39.59,39.59,0,0,0,10.35-1c1.4-.29,1.55,0,1.41,1.34q-.27,4.36-1,8.7a2,2,0,0,1-1.7.3,10.47,10.47,0,0,0-7.35,1.78c-7.88,5-12.23,12.4-14.5,21.24-.36,1.4-.82,2.76-1.27,4.15-.79,2.82-1.43,5.65-.64,8.6A34.39,34.39,0,0,1,160.56,275a5,5,0,0,0-2.6-.53c-.52.1-.69-.28-.91-.61l-6.59-10.08c-.13-.51.19-.85.48-1.18a13.3,13.3,0,0,0,2.52-4.83c1.26-3.49,1.9-7.13,3-10.65l3.87-5.27c.68-.92,1.09-1.9,0-2.72s-1.88-.12-2.52.74c-3.56,4.83-7.49,9.39-10.34,14.71-.62,1.16-.78,2.53-2.42,3.07-1,.3-.69,1.5-.3,2.36a43.82,43.82,0,0,0,3.19,5.87c2,3,4,6.07,6,9.07.48.7.66,1.08-.35,1.47a34.15,34.15,0,0,0-12.85,8.64c-.59.11-.77-.37-1-.73-2.75-4.89-6.18-9.37-9.06-14.17-2.39-4-4.61-8-5.17-12.73a19.62,19.62,0,0,1,2.17-10.63,96.8,96.8,0,0,1,5.68-10.08C135.18,233.66,137.6,231,138.25,227.39Z"/><path class="cls-2" d="M123.56,295.12l-1.79-5.19a56.67,56.67,0,0,0,13.8,3.53,6.86,6.86,0,0,1,5.25,3.33,16,16,0,0,0,11.09,7.11,9.35,9.35,0,0,0,5.87-1.26,24.46,24.46,0,0,0,8.45-6.47,1.08,1.08,0,0,1,.18-.24c.45-.4,5.87-.13,6.12.4a4.45,4.45,0,0,0,4,2.52c1.26.12,1.26.7,1.14,1.66q-1.5,9.78-3,19.55a34.73,34.73,0,0,1-6.77,15.83,47.72,47.72,0,0,0-8.19,15.58A14,14,0,0,0,159,356c.09,1.83-.26,2.23-2,2.68-5,1.26-9.95.85-14.95.39a28.61,28.61,0,0,1-12.71-4.22c-.34-.55,0-1.06.12-1.56,3-9.07,5.9-18.15,7.25-27.63.09-.65.32-1.12,1-1.26a1.8,1.8,0,0,0,.7-2.45.25.25,0,0,1,0-.07c-.65-1.42-1.26-2.86-1.88-4.29-2.59-6.87-4.74-13.87-8.08-20.5a25.62,25.62,0,0,0-2.6-4c-.32-.4-.62-1.08-1.26-.78s-.4.95-.42,1.49S124.53,295,123.56,295.12Z"/><path class="cls-4" d="M85.15,12.86c-1,4.17-2.26,8.31-3.07,12.53-.73,3.78-1.26,7.69-1.75,11.56a184.81,184.81,0,0,0-.8,26.3c.13,5.53.55,11.06,1,16.58.28,3,.44,6,.69,9,.33,3.88.75,7.77,1.13,11.65.22,2.36.43,4.73.65,7.09q.56,5.59,1.15,11.19c.29,2.8.62,5.6.93,8.4q.95,8.26,2.7,16.39a122.41,122.41,0,0,0,6.82,22A98.42,98.42,0,0,0,104,182a81.86,81.86,0,0,0,7.64,9.09,42.88,42.88,0,0,0,15.44,10.35c5,2.16,10.09,4.41,15.32,6.14a219.51,219.51,0,0,0,21.83,5.71,88.57,88.57,0,0,0,10,1c5.17.55,10.37.55,15.53,1.14,3.19.36,6.42.53,9.63.63,4.76.14,9.51.4,14.28.37a57.84,57.84,0,0,1,6.3.58c-3.78.9-7.56,1.37-11.34,1.9a130.73,130.73,0,0,1-15.81,1.26,22.44,22.44,0,0,0-5,0,150.84,150.84,0,0,1-17.65-.74,67.4,67.4,0,0,1-8.38-1c-3.79-.76-7.57-1.27-11.25-2.21a6.77,6.77,0,0,0-2.7-.56c-17-4.56-32.34-12.09-44.2-25.55a90.32,90.32,0,0,1-17.24-30.57,215.88,215.88,0,0,1-10.22-43.22,314.77,314.77,0,0,1-2.84-32.16c-.2-7,.24-14,.59-21,.2-4,.47-7.94.49-11.91A169.15,169.15,0,0,1,75,33.5a63.56,63.56,0,0,1,2.67-13.39A10.36,10.36,0,0,1,85.15,12.86Z"/><path class="cls-5" d="M145.25,223.65c-2.71.27-5,.11-7.35.34a109,109,0,0,0-13.08,1.9c-4.89,1.1-9.72.6-14.58-.13s-9.38-2.19-14.14-2.75c-9.44-1.12-18.51.22-26.68,5.54-3.4,2.22-6.84,4.41-10.22,6.68-3.14,2.11-6.8,2.73-10.32,3.7a93.43,93.43,0,0,1-21,3.15c-5.05.2-10-.28-15-.42-2.67-.07-3.15.41-3.29,3.15-.1,1.93-.21,3.86-.34,6.09a14.07,14.07,0,0,1-.57-4.56c0-2.52-.94-3.71-3.38-4.37-1.09-.31-1.26-.41-1.8-1.69,3.78-.34,7.57-1,11.29-1.59C22,237.43,29.39,237,36.43,234.8a21.6,21.6,0,0,0,9.07-5.22c4.69-4.66,9.49-9.16,15.56-12.1a55.69,55.69,0,0,1,16.62-5.37c6.31-.87,12.53-.09,18.76.83,5.39.8,10.8,1.4,16.19,2.18q6.77,1,13.48,2.18a40.83,40.83,0,0,0,10.82.19,3.18,3.18,0,0,1,3.26,1.43A17.3,17.3,0,0,0,145.25,223.65Z"/><path class="cls-6" d="M174,276.88c-1.6-2.36-.71-4.82-.1-7.16a72.88,72.88,0,0,1,4.4-13.67,31.78,31.78,0,0,1,13-14.21,12.43,12.43,0,0,1,8.07-1,92.29,92.29,0,0,1-3.09,14.51c-1.84,6.82-4,13.55-6.52,20.17-.32.83-.66,1-1.5.82-2.39-.48-4.81-.74-7.16-1.26a5,5,0,0,0-5.36,1.56c-.44.36-1,0-1.48.28Z"/><path class="cls-7" d="M278.22,158.32a23.07,23.07,0,0,1-.54,6.31c-.8,2.82-3.67,5.11-6.51,4.38-8.38-2.18-15.74-5.92-20-14.12-2.87-5.6.19-9.8,5-11.35a32.69,32.69,0,0,1,14.55-.9,5.42,5.42,0,0,1,4.57,3.31A26.3,26.3,0,0,1,278.22,158.32Z"/><path class="cls-4" d="M138.25,227.39c.39,2.13-.86,3.68-1.89,5.31A127.2,127.2,0,0,0,128,246.92a19.25,19.25,0,0,0-2.25,9.13,22.05,22.05,0,0,0,2.29,8.53c2.67,5.4,6.2,10.26,9.46,15.29,1.09,1.7,2.14,3.44,3.21,5.15-2.23,2.83-2.3,2.9-4.74.46-5-5.05-9.95-10.43-13.32-16.87-3.62-6.91-4-13.87-.14-20.92,1.16-2.14,2.28-4.29,3.38-6.46A38.93,38.93,0,0,1,138.25,227.39Z"/><path class="cls-2" d="M177,324.59c1-5.78,2.09-11.53,2.86-17.33.3-2.3.7-4.61,1-6.92.07-.6.15-1,.92-1a4.66,4.66,0,0,0,3.62-2.07c.92-1.16,1.81-2.34,2.85-3.68a66.75,66.75,0,0,1,2.32,8.36c.85,4,1.38,8.12,2.08,12.17a6.3,6.3,0,0,1-2.8,6.65,12,12,0,0,1-3.36,1.1c-2.82.89-5.53,2.11-8.27,3.21C177.25,325.47,177.24,325.43,177,324.59Z"/><path class="cls-8" d="M47.14,242.86a20.24,20.24,0,0,1-4.43,2.69,192,192,0,0,1-21,9.55c-2.72,1-5.51,1.91-8.32,2.73-.86.25-1.12.07-1.12-.85,0-3.78.36-7.56.61-11.26,0-.7.48-.72,1-.77a35.27,35.27,0,0,1,3.7.31c4.32,0,8.65.16,13,0A88.38,88.38,0,0,0,46.1,243,4.62,4.62,0,0,1,47.14,242.86Z"/><path class="cls-5" d="M143.85,218.15a11.39,11.39,0,0,1,3.68.88,115.81,115.81,0,0,0,19.29,3.32,210.73,210.73,0,0,0,24,1.14c4.12,0,8.22-.36,12.32-.71,1-.09,1.09.25,1.13,1a2.53,2.53,0,0,1-1.59,2.61,27.31,27.31,0,0,1-8.37,1.85c-6.62.84-13.14-.4-19.67-1.12a133,133,0,0,1-19-3.37,39.43,39.43,0,0,1-8.71-3A11.58,11.58,0,0,1,143.85,218.15Z"/><path class="cls-4" d="M137.65,324.36c-1,.68-.67,1.84-.8,2.72a138.8,138.8,0,0,1-4.8,19.27c-.83,2.85-1.78,5.67-2.79,8.46-3.78-2-4.93-4.5-3.24-8.32,3.57-8.06,5.69-16.59,8.5-25C135.44,322.6,135.4,324.8,137.65,324.36Z"/><path class="cls-9" d="M158.87,279.34c1.46.87,3.39,1.13,4.18,3.12-1.06,0-2-.08-2.34,1s.35,1.66,1.08,2.25c3.89,3.14,4,7.1.13,10.33-2.31,1.92-4.69,3.78-7.81,4.41a5.37,5.37,0,0,0-2.77-2.52c-.61-.28-1.46-.47-1.41-1.44a2.53,2.53,0,0,1,1.57-.32,7.44,7.44,0,0,0,5.61-11.62c-1.4-2-1.19-2.19.28-3.61C157.88,280.46,158,279.61,158.87,279.34Z"/><path class="cls-10" d="M158.87,279.34c-.23.44-.36,1-.71,1.26-1.88,1.36-1.53,2.52-.38,4.4,3.33,5.44-1.52,11.81-7,11.56h-.89c-.7.23-1.13-.25-1.57-.63a55.08,55.08,0,0,1-5.81-6.76.83.83,0,0,1-.14-1l.92-1a3.86,3.86,0,0,1,4.09,2.32,6.5,6.5,0,0,0,1.36,1.64,3.56,3.56,0,0,0,4.87.35,3.71,3.71,0,0,0,1.26-5,3.07,3.07,0,0,0-1.26-1.36c-2.61-1.49-2.53-3.47,0-5.05a1.74,1.74,0,0,0,.5-.31C155.59,279,157,277.63,158.87,279.34Z"/><path class="cls-9" d="M207.21,267.37a8.34,8.34,0,0,1-3.89,6.38c-1.38,1-2.66.43-3.9-.24s-2.2-1.4-2.09-3V268a8.07,8.07,0,0,0,3.33,1.51,3,3,0,0,0,3.6-2.18,20.22,20.22,0,0,0-.28-12.45c-.34-.94-1-1.57-2-1.26a1.7,1.7,0,0,0-1,2.32,18.6,18.6,0,0,1,.54,9.13c-.08.46,0,1.14-.62,1.17a1.13,1.13,0,0,1-1.1-1,27.47,27.47,0,0,0-1.26-5.36,1,1,0,0,1,.1-.72c.56-2.05,1.14-4.11,1.66-6.18.2-.78.6-1.14,1.37-.87a5.27,5.27,0,0,1,3.68,3,21.7,21.7,0,0,1,1.83,5.79A36.08,36.08,0,0,1,207.21,267.37Z"/><path class="cls-6" d="M182.82,295.32c-.72,1-1.72.79-2.72.71-4.53-.34-4.53-.34-5.71-4.7a20.43,20.43,0,0,0-.66-2.44,4.54,4.54,0,0,1,.81-5c1.26-1.56,2.44-3.25,3.66-4.89a1.76,1.76,0,0,1,1.91-.81c2.2.4,4.39.82,6.6,1.16,1.26.2.51,1.26.88,1.89a1.52,1.52,0,0,1-.87,1.72,2.27,2.27,0,0,1-2.2-.12c-1.81-2.23-1.81-2.23-3.61.23a17.69,17.69,0,0,1-1.84,2.52,4,4,0,0,0-1,4.95v.29c.17,2.29,1,3.95,3.71,3.78A1,1,0,0,1,182.82,295.32Z"/><path class="cls-11" d="M258.18,104.68c.09,3.33-.09,6.64-.24,10a75,75,0,0,0,.55,12.44c0,.38.16.83-.26,1.08a1,1,0,0,1-1.12-.15,11.4,11.4,0,0,1-2.52-1.84c-1.74-4.36-1.79-8.9-1.44-13.49a14.36,14.36,0,0,1,1.67-6.85,2.35,2.35,0,0,1,3.06-1.3A2.09,2.09,0,0,1,258.18,104.68Z"/><path class="cls-5" d="M122.3,274.52c4.35,5.65,8.64,11.08,14.3,15.85-5.23-1-10.09-1.79-14.51-3.91a1.55,1.55,0,0,1-1.12-1.8c.32-2.75.58-5.51.84-8.27A4.85,4.85,0,0,1,122.3,274.52Z"/><path class="cls-4" d="M141.83,3.31a27.13,27.13,0,0,0-2.76,15.54c.14.92.48,1.12,1.33,1.11h6c.48,0,1-.13,1.42.25l-12.87.09c-.55,0-1-.09-1-.76A62.15,62.15,0,0,1,134,9.15a5.79,5.79,0,0,1,2.92-4.1A11.4,11.4,0,0,1,141.83,3.31Z"/><path class="cls-2" d="M258.18,104.68c-2.25,0-2.59.22-3.53,2.32-1.07,2.44-1,5-1.16,7.57a33.49,33.49,0,0,0,1.1,10.87,3,3,0,0,1,0,.73c-2-2.23-2.17-5.13-2.62-7.87a74.36,74.36,0,0,1-.66-13.67,11.2,11.2,0,0,1,2.41-6.58,2.55,2.55,0,0,1,1.49-1.16c2-.4,2.63,0,2.7,2.12S258.09,102.79,258.18,104.68Z"/><path class="cls-9" d="M154.08,279.84c-.24.61-.85.8-1.27,1.19a2,2,0,0,0-.5,2.8,2,2,0,0,0,1,.76c1.92.66,2.23,2.27,2.52,3.86.2,1.26-1.26,3.21-2.67,3.78a3.77,3.77,0,0,1-4.41-.61,9.34,9.34,0,0,1-1.67-1.88c-.79-1.26-1.57-2.62-3.48-2.07,0,0-.19-.29-.27-.45A23.59,23.59,0,0,1,154.08,279.84Z"/><path class="cls-4" d="M126.5,308.4c1.7,2.34,3.25,4.53,4.83,6.68a2.65,2.65,0,0,1,.34,1.7c0,4.47-1.8,8.5-3,12.71C125.38,325.4,124.14,313.66,126.5,308.4Z"/><path class="cls-4" d="M123.56,295.12c.71-.58-.09-1.18,0-1.79s0-1.51.77-1.76,1.12.48,1.52,1a43.2,43.2,0,0,1,6.07,11.81c1.53,4.08,3.2,8.09,4.35,12.28a6.42,6.42,0,0,1,.09.87,83.2,83.2,0,0,0-7.17-10.86A46.35,46.35,0,0,1,123.56,295.12Z"/><path class="cls-4" d="M139.42,23.51a7,7,0,0,0,1.79,1.93,35.34,35.34,0,0,1,6.4,7.14A4.09,4.09,0,0,1,148.3,34c.2.91,0,1.5-1.16,1.12.32-.87-.29-1.26-.86-1.67a94.83,94.83,0,0,0-13.78-9.26,1.4,1.4,0,0,1-.69-.73Z"/><path class="cls-12" d="M142.36,288.24c2.23,3,4.28,6.23,7.57,8.36a10.67,10.67,0,0,0,2.77,1.66,2.06,2.06,0,0,1,1.41,2.18,4.07,4.07,0,0,1-3.33-.14,16.11,16.11,0,0,1-9.78-9.79C140.45,289.27,141.77,288.93,142.36,288.24Z"/><path class="cls-4" d="M156.47,247.06c-1.15,5.86-1.84,11.88-6,16.65l-.29-.32c-1.72-2-1.52-4-.44-6.24A56.36,56.36,0,0,1,156.47,247.06Z"/><path class="cls-5" d="M165.35,279.58a39.32,39.32,0,0,0,7.66.59c-.89,1.26-1.59,2.24-2.3,3.21a4.43,4.43,0,0,0-.67,3.95c.39,1.48.74,3,1.17,4.44.2.67,0,1-.66.89s-1.46-.17-2.2-.26a.58.58,0,0,1-.58-.56.88.88,0,0,1,0-.16c.48-2.62-.78-4.9-1.26-7.34A18.55,18.55,0,0,0,165.35,279.58Z"/><path class="cls-13" d="M186,291.08v.12a11.41,11.41,0,0,0-1.82,1.92c-1.71.51-3.5.22-4.15-.7a5.66,5.66,0,0,1-.22-5.23c.39-.58.89-1.07,1.26-1.66a3.26,3.26,0,0,1,4.18-1.5c1.34.36,2,.94,2,2.29a6.78,6.78,0,0,1-.3,3.37h0C186.61,290.18,186.14,290.52,186,291.08Z"/><path class="cls-14" d="M186.92,289.69c-.09-1.33,0-2.66-.19-4-.09-.78-.4-.84-1-1.11-2.29-1-3.55,0-5,1.79s-1,3.78-.61,5.69c0,.21.24.55.41.57,1.26.13,2.46.88,3.7.07.27,0,.42,0,.32.33a4.81,4.81,0,0,1-1.26,1.47,8.7,8.7,0,0,1-4-.44c-.71-.2-.84-1-1-1.57s-.38-1.53-.47-2.31a3.79,3.79,0,0,1,.77-4.1,34.08,34.08,0,0,0,2.4-3.19c1.26-1.85,1.91-1.88,3.38-.21a2.52,2.52,0,0,0,2.52,0,.64.64,0,0,1,.77.21c.13,1.07.22,2.16.41,3.23A3.56,3.56,0,0,1,186.92,289.69Z"/><path class="cls-4" d="M177,324.59c.29,1,.78.21,1.11.09a59.62,59.62,0,0,1,10.72-3.79c.34-.05.68-.08,1-.1a17.55,17.55,0,0,1-5.55,3.9C181.69,326,179,327,176,328.16Z"/><path class="cls-15" d="M147.81,215.69c1.1-.52,2.09.19,3.08.39,3.6.73,7.17,1.59,10.83,2,0,0,.1,0,.1.08v.25A65.46,65.46,0,0,1,147.81,215.69Z"/><path class="cls-16" d="M178,289.93c.16,3.39,2.16,4.66,5.32,4.6l-.51.81c-.77-.87-1.88-.53-2.8-.67A1.87,1.87,0,0,1,178.2,293a16.13,16.13,0,0,1-.55-2.68C177.78,290.18,177.78,289.93,178,289.93Z"/><path class="cls-17" d="M207.21,267.37v-6.45A12.81,12.81,0,0,1,207.21,267.37Z"/><path class="cls-18" d="M187.79,220.18a9.79,9.79,0,0,1,5,0Z"/><path class="cls-19" d="M187.75,282.89h-.87c-.29.14-.31,0-.26-.24.43-.41.93-.78,1-1.45C188,281.71,187.69,282.36,187.75,282.89Z"/><path class="cls-20" d="M184.52,293l-.31-.33c.5-.58.78-1.43,1.74-1.51A6.91,6.91,0,0,1,184.52,293Z"/><path class="cls-21" d="M186,291.08c-.15-.76.48-1,.92-1.37A2.41,2.41,0,0,1,186,291.08Z"/><path class="cls-2" d="M174.36,276.87c.43-.46,1-.22,1.48-.28C175.42,277.12,174.87,276.87,174.36,276.87Z"/><path class="cls-22" d="M233.74,199.71a17.2,17.2,0,0,1-10.67-3.08c-.59-.41-1.26-.85-.87-1.67s1.13-.74,1.92-.5c4.31,1.26,8.61,2.72,13.22,2.52a1.26,1.26,0,0,1,1.44,1.05s0,.08,0,.12a1.2,1.2,0,0,1-1.34,1.26C236.22,199.59,235,199.64,233.74,199.71Z"/><path class="cls-22" d="M92.75,28c.68,0,.83.55.93,1a48.68,48.68,0,0,0,4,12.51A1.07,1.07,0,0,1,97.39,43l-.1.06c-.65.34-1.14,0-1.52-.53A19.61,19.61,0,0,1,92,29C92,28.5,92.13,28.06,92.75,28Z"/><path class="cls-23" d="M109.29,51.63c-3.14.28-5.74-1.15-8.42-2.28a1.13,1.13,0,0,1-.79-1.4l0-.1c.3-.75,1-.81,1.63-.58,1.26.41,2.52.89,3.78,1.26a31.88,31.88,0,0,0,8.06,1.26c.48,0,1.08-.08,1.11.64s-.58.76-1,.82A25.39,25.39,0,0,1,109.29,51.63Z"/><path class="cls-24" d="M124.12,46.19a1,1,0,0,1-1-1v0c0-.66,1.81-2,2.73-1.94a1,1,0,0,1,1.06.82v.16C127,44.9,125.14,46.19,124.12,46.19Z"/><path class="cls-25" d="M231,78.11c-.63.82-1,1.4-1.46,1.91a7.49,7.49,0,0,1-4.25,2.71c-3.31.71-6.2,2.53-9.28,3.94a73.8,73.8,0,0,0-11.34,6.45c-3.4,2.3-7.2,4-10.6,6.31a23.85,23.85,0,0,0-6.59,7.37,24.9,24.9,0,0,1-6.18,7,8.48,8.48,0,0,1-7.78,1.12A2.34,2.34,0,0,1,172,112.7a21.76,21.76,0,0,1,2.35-11.8,35.61,35.61,0,0,1,5.75-8.09,38.51,38.51,0,0,1,12.5-8.1,96.35,96.35,0,0,1,19.29-5.81,49.69,49.69,0,0,1,16-.79A28.29,28.29,0,0,0,231,78.11Z"/><path class="cls-1" d="M222.69,130.44a24.7,24.7,0,0,1-.74,7.66c-1.63,6.14-7.38,9.18-13.61,7.35-4.76-1.4-7.56-4.86-9.76-9a46,46,0,0,1-5.32-15.53c-.55-4.38-.91-8.83.44-13.13a9.84,9.84,0,0,1,8.16-7.12,14.54,14.54,0,0,1,13.39,4.59,23.27,23.27,0,0,1,4.43,7.88A45,45,0,0,1,222.69,130.44Z"/><path class="cls-25" d="M190.56,151.24c-3.3-.09-6.2-1-8.28-3.79a40.23,40.23,0,0,1-2.72-3.12,3.88,3.88,0,0,1,.34-4.08,2.4,2.4,0,0,1,2.52-1.52c.39,0,.89,0,.89.53,0,2.14,1.63,3.39,2.85,4.69a75.73,75.73,0,0,0,6.31,5.42c.44.36,1.26.58.92,1.26s-1,.58-1.57.59Z"/><path class="cls-26" d="M270.67,155.18a4.41,4.41,0,0,1-4.63-3.94c-.27-1.93,1.26-3.67,3.58-4.23,3.59-.83,6.08,1,5.89,4.39C275.39,153.66,273.45,155.17,270.67,155.18Z"/><path class="cls-27" d="M178,289.93l-.34.39a3.71,3.71,0,0,1,.71-4.54c1.15-1.26,2-2.7,3-4,.38-.48.49-1.34,1.47-1.18a1.54,1.54,0,0,1,1.44,1.58c0,.14.13.27.2.39a.27.27,0,0,1,0,.39v0c-2.09-1.39-2.09-1.38-3.78,1a24.67,24.67,0,0,1-1.51,2A4,4,0,0,0,178,289.93Z"/><path class="cls-28" d="M184.49,283v-.41c.7,0,1.38.52,2.1.06l.27.24C186.13,283.88,185.34,283.18,184.49,283Z"/><path class="cls-29" d="M183.59,287.29a1.08,1.08,0,0,1,1.1,1.07v.12a1.72,1.72,0,0,1-1.56,1.84c-.76.1-1.06-.44-1-1.12A1.82,1.82,0,0,1,183.59,287.29Z"/><path class="cls-11" d="M214.94,111c2.2,3.33,3.09,7.12,3.88,11a51.94,51.94,0,0,1,.57,11.55,12.5,12.5,0,0,1-1.26,5.74c-2.24,4.15-7.41,4.16-10.86,2.34a12.87,12.87,0,0,1-5.75-6.75,11.42,11.42,0,0,0-.49-1.26,36,36,0,0,1-.78-8.15c.06-2,.46-2.52,2.44-2.9a3.78,3.78,0,0,0,2.13-6.57,8,8,0,0,0-1.09-1c-1.52-1.26-1.64-1.83-.76-3.54a6.93,6.93,0,0,1,9.4-2.74,7.18,7.18,0,0,1,1.85,1.48A5.28,5.28,0,0,0,214.94,111Z"/><path class="cls-2" d="M214.94,111c-.6,0-.84-.47-1.26-.76a8.74,8.74,0,0,0-5.64-2,6.2,6.2,0,0,0-5.42,5c-.07.53.2.68.55.89a7.83,7.83,0,0,1,2.07,1.69,4.72,4.72,0,0,1,.83,4.63,3.69,3.69,0,0,1-3.59,2.46c-1.58,0-1.8.84-1.88,2.13a74.81,74.81,0,0,0,.59,8.59c.14.3,0,.36-.27.34a40.34,40.34,0,0,1-4.66-23,7.9,7.9,0,0,1,9.77-7,11.51,11.51,0,0,1,8.75,6.44A2.89,2.89,0,0,1,214.94,111Z"/><path class="cls-30" d="M201,133.94l.28-.34c.31.35.22.78.24,1.26A1.28,1.28,0,0,1,201,133.94Z"/></g></g></g></g></svg>