<svg xmlns="http://www.w3.org/2000/svg" width="264.76" height="341.45" viewBox="0 0 264.76 341.45"><defs><style>.cls-1{fill:#17458b;}.cls-2{fill:#9fb2cf;}.cls-3{fill:#eff2fc;}.cls-4{fill:#2d7eca;}.cls-5{fill:#ced1d9;}.cls-6{fill:#2283f0;}.cls-7{fill:#fefefe;}.cls-8{fill:#323641;}.cls-9{fill:#2667ad;}.cls-10{fill:#fed300;}.cls-11{fill:#3145a4;}.cls-12{fill:#fef218;}.cls-13{fill:#2284f0;}.cls-14{fill:#d9b500;}.cls-15{fill:#fdd300;}.cls-16{fill:#cdd1d9;}.cls-17{fill:#d8b502;}.cls-18{fill:#eaeef9;}.cls-19{fill:#e2e7f3;}.cls-20{fill:#d4b304;}.cls-21{fill:#e1e5f1;}.cls-22{fill:#1d68c3;}.cls-23{fill:#99adcf;}.cls-24{fill:#dfe1db;}.cls-25{fill:#9fadc5;}.cls-26{fill:#17458c;}.cls-27{fill:#18458c;}.cls-28{fill:#59a0dc;}.cls-29{fill:#abacb3;}.cls-30{fill:#599fdb;}.cls-31{fill:#edf0fb;}.cls-32{fill:#bac5e2;}.cls-33{fill:#93a3cf;}.cls-34{fill:#1b488d;}.cls-35{fill:#f8fafc;}.cls-36{fill:#2283ef;}</style></defs><title>资源 1</title><g id="图层_2" data-name="图层 2"><g id="图层_1-2" data-name="图层 1"><g id="图层_2-2" data-name="图层 2"><g id="图层_1-2-2" data-name="图层 1-2"><path class="cls-1" d="M185.48,280.47c-.41,1.4-1.26,2.69-2.82,5.67-1.52,2.15-1.86,3.11-2.79,3.5,0,0-6.31-.6-7.62-.61a61.22,61.22,0,0,0,4.13,6.56c3.55,4.87,7.19,9.75,11,14.45a19,19,0,0,0,5.88,5,28.09,28.09,0,0,1,5.77,4.27c2.52,2.32,2.86,4.5,1.08,7.45a22.4,22.4,0,0,1-6.51,6.85,42,42,0,0,1-19.91,7.72,20.69,20.69,0,0,1-11.32-2c-5.82-2.81-10.73-6.91-15.67-11s-10-8.6-14.68-13.2a1.92,1.92,0,0,0-1.75-.61,112,112,0,0,1-13.93,1,14.27,14.27,0,0,1-10.75-4.69,49.51,49.51,0,0,0-10-8.4,3,3,0,0,0-3.1-.52c-3.44,1.61-6.3-1.48-6.33-4.43A27.51,27.51,0,0,1,87.43,289a68.88,68.88,0,0,1,4-9.43,16.45,16.45,0,0,1,7.76-7.45c2.14-1.07,3.38-1.11,6.49-.44a49.44,49.44,0,0,1-1.65-8.53c-.33-7.07-2.09-14-2.63-21a50.51,50.51,0,0,1,.85-11.9,2.11,2.11,0,0,0,0-1.22,89,89,0,0,1-9.31,4.55,100,100,0,0,1-27.41,6.58,171.33,171.33,0,0,1-27.65.49A76.12,76.12,0,0,1,12.07,234c-7.43-3.26-11-9-11.87-16.67a9.25,9.25,0,0,1,0-3.85c.44-1.48,2-2,2.84-.77,2.37,3.22,5.94,4.8,9.05,7,1.45,1,3,1.87,4.56,2.76a3.55,3.55,0,0,0,4.87-1.25,2.63,2.63,0,0,0,.21-.41c.58-1.21,1-2.58,1.57-3.86a6.55,6.55,0,0,1,8.23-4c2.67.77,5.28,1.74,7.91,2.63A10,10,0,0,0,48,213.35c.29-.32.55-.67.83-1,1.5-1.76,2.11-1.78,4.23-.88a23.4,23.4,0,0,0,8.7,1.74,180.3,180.3,0,0,0,27.49-1.08,168.57,168.57,0,0,0,17.07-3.59c5-1.22,10.09-2.34,15.21-3.13.22,0,.43-.11.64-.18,0-.32-.18-.37-.32-.44-13.47-6.44-23.65-16.65-32.4-28.43a111.92,111.92,0,0,1-20.28-47.54c-1.37-7.61-2.73-15.21-3.65-22.88-.65-5.55-.67-11.13-1-16.69-.41-7.55-.76-15.23-1.32-22.85C62,50.5,63.24,34.84,68,19.55c1-3.3,2.33-6.52,5.17-8.81A17.84,17.84,0,0,1,83.32,7.08,27,27,0,0,1,98.71,10a57.46,57.46,0,0,1,12.63,8.53c.42,0,.42,0,.28-.64-.14-.86-.26-1.71-.39-2.56s-.13-1.8.84-2.23,1.64.12,2.26.8c3.3,3.66,7.56,5.34,12.19,6.09,3.55.63,3.56.55,4.08-2.91a36.59,36.59,0,0,1,3-10C135.72,2.54,139.47.4,144.35,0a19.66,19.66,0,0,1,8,1.31c6.09,2.08,11.1,5.83,16,9.83A300.09,300.09,0,0,0,204.05,36.6c6.62,4,12.89,8.54,19.37,12.77,11,7.13,17.58,17.34,20.86,29.85A172.77,172.77,0,0,1,248,101.49c.86,6.81,1.22,13.69,1.51,20.55a11.54,11.54,0,0,0,3.44,8.29c1.59,1.52,2.83,3.38,5.06,4.24a7.87,7.87,0,0,1,3.47,3.38c4,6.29,4.88,18.64-.57,25.54a4.76,4.76,0,0,0-1.08,3.53c.87,14-5.18,24.54-16.42,32.43-9,6.36-19.21,10.14-29.9,12.64-4.62,1.08-9.27,2-14,2.65-.51.08-1,.22-1.68.36,2.28,5.9,6.52,10,11.33,13.78a20.25,20.25,0,0,0,2.44-5.79c.5-1.49.95-3,1.54-4.48a10.54,10.54,0,0,1,11.83-7c2.44.29,4.88.74,7.26,1.14a2.44,2.44,0,0,1,1.74.93c1.62,2.56,4.07,4.37,6,6.67,2.44,2.84,2.74,6.09,0,8.53-2.29,2.13-3.77,4.87-5.84,7.07-4.61,4.87-9,10.05-14.39,14.24-8.53,6.64-18.94,4-25.39-1.22-.59-.48-1.14-1-1.89-1.65-.48,1.87-.92,3.66-1.37,5.33a70.1,70.1,0,0,1-4.88,12.76c-.33.67-2,4.23-.95,4.76"/><path class="cls-2" d="M111.62,17.92c.25.29.41.67.13,1s-.38-.12-.47-.35C111.58,18.43,111.53,18.14,111.62,17.92Z"/><path class="cls-3" d="M144.18,3.29a15.28,15.28,0,0,1,7,1c5.42,1.87,9.94,5.16,14.34,8.68C175.77,21.1,186,29.3,197.26,36c8.53,5.05,16.58,10.8,24.83,16.26A42.93,42.93,0,0,1,236,67a7.7,7.7,0,0,1,1.07,2.35l-5.88-.61a132.62,132.62,0,0,0-17.72-.16,113.5,113.5,0,0,0-20.72,2.19C184.33,72.61,176,75,168.54,79.49a52.37,52.37,0,0,0-13.41,10.75,29.41,29.41,0,0,0-6.93,22.62c.55,5.66,1.35,11.28,3.83,16.46a60.09,60.09,0,0,0,12.38,17.76c10.2,9.75,22.16,11.87,35.45,7.52a49.08,49.08,0,0,0,15.42-8.53,37.78,37.78,0,0,1,15.85-7.73l.62-.1a11.05,11.05,0,0,0-2.81,13.9,16.71,16.71,0,0,0,6.17,7.07,60,60,0,0,0,13,6.17,17.58,17.58,0,0,0,7.31.69c1.08-.1,1.33.07,1.41,1.22C257.53,178.87,253,188,244,195.12a67.78,67.78,0,0,1-20,10.69c-.63.22-1.35,0-1.88.52a120.32,120.32,0,0,1-17.33,2.15,193.5,193.5,0,0,1-19.85.78c-6-.15-11.9-.39-17.84-.77a143.74,143.74,0,0,1-20.54-2.85,75.19,75.19,0,0,1-16.56-5.8c-2.87-1.36-5.94-2.31-8.61-4-3.66-2.44-7.43-4.79-11-7.37a12.86,12.86,0,0,1-2-1.89c-2.65-3-5.5-5.78-8.4-8.54-1.86-1.75-2.84-4.2-4.14-6.38a133.77,133.77,0,0,1-10.06-20.1,94.73,94.73,0,0,1-4.54-15.19C78.83,124.14,76,112,74.43,99.62c-.69-5.29-1-10.6-1.59-15.9-.55-4.65-1-9.33-1.4-14.12-.11-1-.15-2.12-.16-3.17-.09-6.37-.67-12.74-.33-19.14.26-4.8.71-9.57,1.22-14.34a106.32,106.32,0,0,1,4.22-18.39,7,7,0,0,1,2.25-3.29,23.06,23.06,0,0,1,17.63,1.09A52.48,52.48,0,0,1,112,23.52c5.94,6.2,13.41,10.23,20.55,14.63.42.26.93.53,1.22,0s-.24-.94-.63-1.22c-4.23-3.16-8.43-6.36-12.45-9.75-.29-.24-.56-.52-.84-.78-.51-.93-.5-2-.95-3s-.1-1.58,1.22-1.35,2.38.65,3.66.82c4.19.94,8.43.45,12.64.28a51.49,51.49,0,0,1,30.14,8,8.6,8.6,0,0,0,.88.5.7.7,0,0,0,1-.1.43.43,0,0,0,0-.07.7.7,0,0,0-.12-1l-.05,0c-.67-.55-1.36-1.06-2.06-1.57-4.64-3.38-9.38-6.55-15.17-7.63A71,71,0,0,0,137.68,20c0-1.22.8-2.14.85-3.37s.17-2.77.21-4.17c.08-3.56,1.9-6.26,4.4-8.53A2.78,2.78,0,0,1,144.18,3.29Z"/><path class="cls-4" d="M250.68,132.48c-5.29,1.75-10.8,1.92-16.21,2.67A40.35,40.35,0,0,0,214,143.87a44.24,44.24,0,0,1-20.56,9.75c-9.4,1.65-18-.25-25.25-6.58A51.81,51.81,0,0,1,153,124.82a43.84,43.84,0,0,1-2.44-17.26,25.16,25.16,0,0,1,6.86-16.1,58.88,58.88,0,0,1,26.82-15.85A108.52,108.52,0,0,1,200.75,72c2.28-.3,4.57-.5,6.86-.63,7.31-.43,14.63-.45,21.94-.27,2.77.07,5.51.59,8.27.89a1.23,1.23,0,0,1,1.06.78,68.23,68.23,0,0,1,4,14.36c.08.48.11,1-.7.85-4.71-1-7.63,2.11-8.53,6.6a64.24,64.24,0,0,0-.37,18.16,25.2,25.2,0,0,0,4.11,12.19,6.52,6.52,0,0,0,9,1.83c.35-.23.66-.54.83.13A13.9,13.9,0,0,0,250.68,132.48Z"/><path class="cls-3" d="M122.81,218.4c5.86-2.44,11.7-4.87,18.28-4.28a10.62,10.62,0,0,1,2.94.61,121.27,121.27,0,0,0,28.56,7.57,40,40,0,0,0,17.26-1.22,28.28,28.28,0,0,0,4.62-2.19,152.71,152.71,0,0,1-2.66,16.61,1.3,1.3,0,0,1-.73-.65c-3.66-5.51-8.7-7.32-15.05-5.49a17.8,17.8,0,0,0-9.36,6.41,41.47,41.47,0,0,0-8,20.14,53.94,53.94,0,0,0-.58,6.59,5.83,5.83,0,0,0,1.22,4.2.73.73,0,0,1,.18.79,66.79,66.79,0,0,1-19.36-6,46.19,46.19,0,0,1-6.09-3.44,5.49,5.49,0,0,1-.47-2.8,33.74,33.74,0,0,1-.17-8.46,18.46,18.46,0,0,1,3-6.51,2,2,0,0,1,1.22-.74,32.36,32.36,0,0,1,4.88-.76c.51-.07,1.22-.11,1.16-.81s-.71-.75-1.3-.8c-6.09-.58-11.61,1.5-17.2,3.36a2.43,2.43,0,0,0-1.7,2.82c.23,2.25.41,4.49.75,6.72.15,1-.2,1-1,.93A31.63,31.63,0,0,0,110,252.81c-1.12-6.69-2.36-13.28-.24-20.13,2-6.32,5.56-10.8,11.57-13.41A5.7,5.7,0,0,0,122.81,218.4Z"/><path class="cls-3" d="M127.71,277a98.5,98.5,0,0,0,24.38,9.35,64.86,64.86,0,0,0,13.53,1.73c.7,0,1.45-.12,1.62.94a1.07,1.07,0,0,0,1.07.84c1.22,0,1.55.83,2,1.66,4.66,8.23,10.61,15.52,16.67,22.72a16.47,16.47,0,0,0,4.94,3.66,26.77,26.77,0,0,1,5.08,3.77c1.4,1.21,1.52,2,.51,3.65a14.89,14.89,0,0,1-1.82,2.44,35.33,35.33,0,0,1-18,9.86,3.55,3.55,0,0,1-2.87-.44c-5.39-2.95-11-5.46-16.06-9A110.71,110.71,0,0,1,141,313.08c-2.73-3-5.78-5.63-8.31-8.79a33.85,33.85,0,0,1-7.4-18,20.92,20.92,0,0,1,1.22-8.33C126.61,277.39,126.8,276.68,127.71,277Z"/><path class="cls-5" d="M78.67,11.27c-3.54,6.19-4.63,13.11-5.74,20A155.72,155.72,0,0,0,71.38,47.1c-.37,6.09.1,12.19.21,18.28.1,5.85,1.06,11.69,1.6,17.54.43,4.53.69,9.06,1.22,13.56q1.23,10.3,3.34,20.49c1.73,8.23,3.14,16.53,5.27,24.67a103.39,103.39,0,0,0,10.31,24.77c2,3.66,4,7.32,6.36,10.77a28.25,28.25,0,0,0,2.82,2.65c1.84,2,3.89,3.84,5.67,5.94,2.58,3.06,6.09,4.88,9.41,7A91.13,91.13,0,0,0,145.48,205a108.25,108.25,0,0,0,15,2.56c4.57.54,9.15.72,13.73.9,5.17.2,10.34.7,15.51.47,6.09-.28,12.19-.44,18.19-1,4.75-.46,9.47-1.22,14.23-1.52a87,87,0,0,1-13.86,3.66A163.4,163.4,0,0,1,169,213.51c-19.15-.78-37.17-5.43-53.46-15.84C107,192.24,100.21,185.06,94,177.22a109.34,109.34,0,0,1-21.94-49.79c-1.4-7.94-2.91-15.93-3.64-24-.37-4.06-.54-8.16-.66-12.19C67.48,81.16,66.55,71.1,66.1,61a113.66,113.66,0,0,1,5.4-41.87c1.16-3.46,3-6.32,6.62-7.71A5,5,0,0,1,78.67,11.27Z"/><path class="cls-6" d="M135.75,210.92c-8.14,1.69-15.34,4.87-22.5,8a100.82,100.82,0,0,0-10.85,6.27,79.19,79.19,0,0,1-25.6,9.93,42.05,42.05,0,0,1-6.54.27c-13.84.61-27.06-2.23-40-7-2.78-1-5.56-2-8.46-3.38,2.36-1.29,3-3.51,3.78-5.59,1.33-3.57,2.74-4.39,6.4-3.11,6.09,2.14,12.3,4,18.45,6a38,38,0,0,0,12.27,2.1c.9,0,1.81-.15,2.71-.22.42,0,1,0,1-.55s-.64-.56-1-.56a40,40,0,0,1-7-.92,101.65,101.65,0,0,1-12-4.11,9,9,0,0,0,4.41-3.27c.31-.49.66-.5,1.22-.32a37.84,37.84,0,0,0,11.7,2c5.69.08,11.4-.05,17.14-.36a133.9,133.9,0,0,0,25.6-4.39,138.28,138.28,0,0,1,18.28-3.58,10.51,10.51,0,0,1,6.54,1A43.56,43.56,0,0,0,135.75,210.92Z"/><path class="cls-7" d="M159.47,267.5c-2.24-2-1.89-4.62-1.68-7.1a51.64,51.64,0,0,1,1.68-10.57c1.87-6.21,4.28-12.12,9.12-16.68a16.59,16.59,0,0,1,11.51-4.87c5.24,0,9.48,2.06,11.7,7.19a163.88,163.88,0,0,1-3.66,16.37A99.62,99.62,0,0,1,182.06,268l-2-.44-6.55-1.5-2.28,3C166.83,268.62,163.76,268.64,159.47,267.5Z"/><path class="cls-8" d="M261.62,149.86c-.07,4.37-.59,7.95-2.74,11.18a4.33,4.33,0,0,1-3.66,2,17.9,17.9,0,0,1-8.27-1.36c-4-1.78-8.22-3.35-11.62-6.22s-5.25-6.55-4.2-11.19a4.65,4.65,0,0,1,2.69-3.36,76.63,76.63,0,0,1,11.42-3.84,23.39,23.39,0,0,1,5-1.13c5.67-.28,8.79,2,10.4,7.61A19.24,19.24,0,0,1,261.62,149.86Z"/><path class="cls-3" d="M90.47,290.5a43.72,43.72,0,0,1,4.47-10.84,12.46,12.46,0,0,1,6-4.88,4.14,4.14,0,0,1,4.66.85c2.27,2,4.37,4.2,7.38,5.51-1,.55-1.78,1-2.58,1.45a1.55,1.55,0,0,0-.85,2,1.86,1.86,0,0,0,.1.2c.51.94,1.39.91,2.25.5,1.31-.61,2.6-1.22,3.88-1.87.67-.33,1-.36,1,.59-.07,1.22,0,2.43,0,3.74-1.28,5.31-.08,10.26,2.15,15.07a28.8,28.8,0,0,1,1.38,2.85c.34,1,0,1.46-1,1.22-6-1.22-12-2.44-16.88-6.72a82.3,82.3,0,0,0-10.68-7.81C91.11,291.92,90.17,291.6,90.47,290.5Z"/><path class="cls-6" d="M169.39,272.14a17.9,17.9,0,0,0-1.83,3.51s.07,1.19.17,2.36c.08,1.83.69,4.18.76,6-.2,1.58-2.2,1.18-3.42,1.08a80,80,0,0,1-16.53-2.82,102.52,102.52,0,0,1-18.49-7.55c-.21-.11-.43-.21-.64-.33-1.7-1-1.7-1-.44-2.53A7.27,7.27,0,0,0,130.9,267a11,11,0,0,1,1-3,11.93,11.93,0,0,0,.58-3.24C144.21,268.28,155.64,270.83,169.39,272.14Z"/><path class="cls-3" d="M197.44,221.41c1.64,1.92,3.15,3.66,4.7,5.48a24.12,24.12,0,0,0,4.8,4.1c.72.49.89.88.37,1.6a18,18,0,0,0-1,1.73.87.87,0,0,0,.09,1.22c.43.39.81.11,1.14-.21,1.13-1.11,2.27-2.2,3.38-3.34.39-.4.63-.68,1.06,0a17.46,17.46,0,0,0,13.24,8.43,2.24,2.24,0,0,1,.53.23c-4.24,4.24-8.13,8.76-14.21,10.24-5.67,1.37-14.2-1.95-17.59-6.7a1.83,1.83,0,0,1-.27-1.62c.72-3.47,1.46-6.93,2.09-10.43S196.82,225.07,197.44,221.41Z"/><path class="cls-5" d="M127.71,277c-.72,0-.76.59-.95,1.07-1.64,4.19-1.37,8.39-.38,12.67A33.66,33.66,0,0,0,135.64,307c2.84,2.86,5.51,5.89,8.44,8.65,7.58,7.16,15.71,13.58,25.16,18.19,2.19,1.07,4.35,2.24,6.47,3.45a4.82,4.82,0,0,0,1.95.32,19.09,19.09,0,0,1-13.41-.79,64,64,0,0,1-13.31-9,189.87,189.87,0,0,1-21.56-19.91,38.16,38.16,0,0,1-9.28-20.25,19.18,19.18,0,0,1,1.46-10.7c.48-1.06,1.59-1,2.29-1.55.94-.78,1.61-.31,2.31.41A11.4,11.4,0,0,0,127.71,277Z"/><path class="cls-5" d="M90.47,290.5a1.32,1.32,0,0,0,.72,1A123.8,123.8,0,0,1,104.13,301c3.12,2.59,6.91,3.65,10.74,4.56,1.49.35,3,.57,4.49.95,1.08.28.92-.19.62-.84-.79-1.7-1.65-3.36-2.37-5.09a24,24,0,0,1-1.68-10.68,3,3,0,0,1,.88-2.2,49.16,49.16,0,0,0,2.9,10.35,39.56,39.56,0,0,0,7.44,12.08c.41.45.8.94,1.4,1.64l-5.89.58a41.1,41.1,0,0,1-7.92.14,10.36,10.36,0,0,1-6.72-3.54,54.61,54.61,0,0,0-10.53-8.89,6.1,6.1,0,0,0-6.1-.83c-1.09.48-1.9-.23-1.92-1.67A19.41,19.41,0,0,1,90.47,290.5Z"/><path class="cls-9" d="M52.76,237.8c-6-.09-11.66.09-17.31-.53a67.11,67.11,0,0,1-15-3.27,63.72,63.72,0,0,1-10.23-4.57c-3.66-2-5.27-5.29-6.27-9.05a6.59,6.59,0,0,1-.37-2.64C18.17,228.84,34.88,234.16,52.76,237.8Z"/><path class="cls-10" d="M215.36,222a11.65,11.65,0,0,1,1.43-3.74,7.07,7.07,0,0,1,6.44-3.66,61.82,61.82,0,0,1,7.54,1c.71.11.94.42.49,1.05a9.29,9.29,0,0,0-4.43,1.86,6.3,6.3,0,0,1-1.89,1c-2.69,1.34-3.2,4.4-.9,6.28a4.61,4.61,0,0,1,1.71,3.15c.12.75,0,1.68,1,1.82s1-.91,1.42-1.59a1.58,1.58,0,0,1,.53,1.07,7.09,7.09,0,0,1-1.41,2.15,31,31,0,0,0-2.67,4.55c-3.66-.24-6.4-2.23-8.76-4.87-1.91-2.15-3.32-4.28-1.56-7.19A11.4,11.4,0,0,0,215,223C215.4,222.75,215.23,222.33,215.36,222Z"/><path class="cls-11" d="M244.25,96.65c.48,4.06,1,8.12,1.43,12.19.17,1.51.13,3,.29,4.56.31,3,.32,6.09.42,9.14,0,1.06-1.73,2.66-3,2.73a5.42,5.42,0,0,1-3.65-3.11,22.71,22.71,0,0,1-2.44-9.24,35.83,35.83,0,0,0-.22-3.58,1.61,1.61,0,0,1,1.1-2l.19,0c1.75-.52,2-1,2-2.78a6.13,6.13,0,0,0-1.13-3.93c-.61-.8-1.46-1.53-.74-2.66a3.88,3.88,0,0,1,3.18-2.16A3.22,3.22,0,0,1,244.25,96.65Z"/><path class="cls-5" d="M122.81,218.4a7.51,7.51,0,0,1-3.08,2,18.16,18.16,0,0,0-9.53,11.81,27.68,27.68,0,0,0-1.47,10.17c.27,2.79.7,5.58,1.22,8.35a5.31,5.31,0,0,1-.09,2.1l-2.3,1.13a4.58,4.58,0,0,1-1.73-3.17c-.09-.38,0-.82-.33-1.13a45.42,45.42,0,0,1-.72-15.85,25.21,25.21,0,0,1,1.59-6.69,2.12,2.12,0,0,1,.71-1.05A72.28,72.28,0,0,1,122.81,218.4Z"/><path class="cls-3" d="M244.25,96.65c-.52.15-.91-.23-1.36-.35a3.48,3.48,0,0,0-4.26,2.28c-.17.48,0,.69.32,1,1.8,1.67,2,3.84,1.84,6.09a2.06,2.06,0,0,1-2.06,2c-1.06.06-1.36.47-1.29,1.53a48.76,48.76,0,0,0,1.08,8.85c.8,3,2,5.68,4.88,7.22a4.47,4.47,0,0,1-4.56-2.59,24.33,24.33,0,0,1-3.08-10.08c-.51-6-.9-12,.47-17.88.34-1.47.61-3,2.21-3.83,2.6-1.31,4.87-.19,5.3,2.65Z"/><path class="cls-10" d="M126.39,256.77c1.37,1.43,3,2.69,2.82,5.08-.65-.16-.84-1.22-1.61-.74s-.33,1.1-.23,1.7.2,1.52.34,2.27a5.41,5.41,0,0,1-2.68,6,18.42,18.42,0,0,1-8.82,3.31c-1.16-2-3.37-3.42-3.73-6-.07-.54-.53-1.06,0-1.58,1.6.61,3,1.5,4.88,1.45,4.3-.12,6.78-3.29,5.68-7.49-.23-.89-.66-1.71-.9-2.59-.3-1.06,0-1.61,1.09-1.72A5,5,0,0,1,126.39,256.77Z"/><path class="cls-12" d="M126.39,256.77c-1,0-1.91.08-2.88,0s-1.36.44-.94,1.41a10.86,10.86,0,0,1,1.15,5,5.81,5.81,0,0,1-5,5.44,7.52,7.52,0,0,1-6.29-1.72,5.75,5.75,0,0,1-2.67-4.76c-.13-1.61-.09-1.62-1.7-1.39-.38,0-.77.14-1.07-.18-.26-2.13.74-3.45,3.33-4.35,2.07-.91,3.73.68,3.65,2.78v2.58a3.83,3.83,0,0,0,2.87,3.39,2.64,2.64,0,0,0,3.37-3.36,12.41,12.41,0,0,0-.86-2.44,3.81,3.81,0,0,1-.34-2.44c.46-2.06,1.22-2.77,3.12-2.55a6.18,6.18,0,0,1,1.81.3A5.3,5.3,0,0,1,126.39,256.77Z"/><path class="cls-5" d="M137.54,239.54a15.32,15.32,0,0,0-3.77,7.69,37.48,37.48,0,0,0,.29,8.79q0,1,0,2a30.63,30.63,0,0,1-4.37-2.62c.08-.84-.61-1-1.22-1.22-1.36-.83-1-2.29-1.21-3.5-.33-2.12-.52-4.28-.77-6.41-.06-.55-.11-1.05.56-1.29C130.56,241.82,133.89,240.17,137.54,239.54Z"/><path class="cls-13" d="M181,272.48a.55.55,0,0,0-.57.37c-.06.27.19.5.46.65.56.38,1.31.12,1.9.54"/><path class="cls-13" d="M179.87,282.18c-1.06.95-7.38-1-6.42.06a2.57,2.57,0,0,0,1.42.82"/><path class="cls-10" d="M124,254.53H122.4a2.9,2.9,0,0,0-3.14,2.61,3,3,0,0,0,.4,1.76,19,19,0,0,1,1,2.54c.36,1.31.4,2.59-.93,3.47a3.8,3.8,0,0,1-4.42-.16,4,4,0,0,1-1.7-3.73,11.53,11.53,0,0,0,0-1.44c0-2.68-.54-3.23-3.28-3.33a24.11,24.11,0,0,1,13-2.05C123.55,254.19,123.89,254.15,124,254.53Z"/><path class="cls-6" d="M158.62,215.79a156.7,156.7,0,0,0,18.38.93c5.35-.06,10.67-.61,16.26-1.11a12.43,12.43,0,0,1-6.46,3.06,49.29,49.29,0,0,1-20.52-.61l-7.95-2C158.25,215.87,158.32,215.79,158.62,215.79Z"/><path class="cls-5" d="M144.18,3.29C141,6,138.67,9.11,139,13.58c.11,1.45-.36,2.84-.34,4.27,0,.88-.75,1.37-1.11,2.08a27.73,27.73,0,0,0-3.15.12c-.83.07-1-.31-.88-1A32.27,32.27,0,0,1,137,7.57,8.24,8.24,0,0,1,144.18,3.29Z"/><path class="cls-14" d="M107,260.57c1,0,2.07-.94,2.85-.39s.12,1.78.32,2.69a10.51,10.51,0,0,0,2.28,4.05c.68,1.89.74,4.06,2.76,5.3a2.59,2.59,0,0,1,1,2.16,11.49,11.49,0,0,1-4.13-.34,4,4,0,0,1-3.14-2.67A33.16,33.16,0,0,1,107,260.57Z"/><path class="cls-15" d="M229.28,222.18a6.63,6.63,0,0,0,4.71-3.66c1.65,1.22,2.58,3,3.9,4.37A7.15,7.15,0,0,1,234,226c-.57.19-1.52.53-1.85-.58l.28-.64c.19-.47.3-.95-.2-1.22a1,1,0,0,0-1.22.18c-.57.42-1.22.82-1.76,1.22-.86.54-1.6.49-2.08-.52C227.26,223,228.55,222.84,229.28,222.18Z"/><path class="cls-14" d="M224.66,237c.52-2.76,2.26-4.76,4.09-6.7a5.49,5.49,0,0,0,4.05,2.15C231,236.7,228.58,238,224.66,237Z"/><path class="cls-14" d="M232.15,225.36c1.22.77,2.32.22,3.33-.56l2.43-1.92a2.43,2.43,0,0,1,.4,3.42l-.21.23a7.92,7.92,0,0,1-4.18,2.6c-.82.23-1.8.34-2.33-.54a2,2,0,0,1,.1-2.52A5.13,5.13,0,0,1,232.15,225.36Z"/><path class="cls-16" d="M123.75,22.83l-4.88-.54A5.73,5.73,0,0,1,120,26.35c-1.62-1.11-2.93-2.58-4.43-3.83-1-.8.17-1.69-.2-2.51-.15-.4-.15-.7.4-.69A43.16,43.16,0,0,0,123.75,22.83Z"/><path class="cls-17" d="M225,219.55c1.22-.81,2.3-1.66,3.52-2.38.83-.49,1.74-1.06,2.79-.46a2.82,2.82,0,0,1-2.53,2.3C227.48,219.22,226.21,219.38,225,219.55Z"/><path class="cls-18" d="M114.21,277.55h3.54c-.11,2-.45,2.25-2.27,1.32-.63-.31-1.22-.67-1.88-1C113.57,277.34,113.9,277.46,114.21,277.55Z"/><path class="cls-19" d="M105.5,249.64a.29.29,0,0,1,0-.13,1.37,1.37,0,0,1,.16-.18,5.44,5.44,0,0,1,.25.9,11.13,11.13,0,0,0,1.6,3.73l-1.28,1A37.46,37.46,0,0,1,105.5,249.64Z"/><path class="cls-20" d="M229.28,222.18c-.39,1-1.63,1.16-2.07,2.11-.2-.12-.4-.24-.6-.38-.36-.28-.89-.55-.71-1.11s.74-.28,1.13-.35C227.77,222.34,228.53,222.28,229.28,222.18Z"/><path class="cls-21" d="M128.51,254.25c1.68,0,1.71,0,1.22,1.22A2.82,2.82,0,0,1,128.51,254.25Z"/><path class="cls-22" d="M158.62,215.79l-.28.3-1.45-.35C157.47,215.63,158.07,215.37,158.62,215.79Z"/><path class="cls-23" d="M114.21,277.55c-.2.11-.51,0-.61.33a.82.82,0,0,1-.68-.47A1.28,1.28,0,0,1,114.21,277.55Z"/><path class="cls-24" d="M215.36,222c0,.36.47.89-.34,1C215.11,222.64,215.07,222.27,215.36,222Z"/><path class="cls-25" d="M115.7,19.32c-.29.14-.34.42-.4.69a.75.75,0,0,1-.14-1C115.43,18.7,115.57,19.12,115.7,19.32Z"/><path class="cls-26" d="M211.91,192.49c-4.42-.1-8.53-.36-12.19-2.59l-.37-.21c-.72-.4-1.61-.79-1.14-1.81s1.22-.6,2-.37a40.12,40.12,0,0,0,4.58,1.22,45.35,45.35,0,0,0,14.05.23c.83-.11,1.64-.2,1.89.76s-.56,1.33-1.31,1.55A21.48,21.48,0,0,1,211.91,192.49Z"/><path class="cls-27" d="M84.29,33.79c.62.07.68.56.81,1,.56,2,1.22,3.94,1.71,5.94a15.16,15.16,0,0,0,5.7,8.53c.31.23.61.47.91.72s.69.71.39,1.22a.93.93,0,0,1-1.27.38l-.11-.06c-3.13-1.65-6.1-3.39-7.58-6.93a18.49,18.49,0,0,1-1.31-9.86C83.62,34.35,83.64,33.85,84.29,33.79Z"/><path class="cls-28" d="M175.31,112c-2.15,1.59-3.85,3.66-6.39,4.88-3.95,1.77-8.53-.46-8.78-4.75a42,42,0,0,1,.45-12,9.13,9.13,0,0,1,2-4.09,63.25,63.25,0,0,1,7.32-7.32,35.57,35.57,0,0,1,13.32-6.23c5-1.37,10-2.65,15-3.92a15.66,15.66,0,0,1,3.26-.49c4.61-.14,9.21-.33,13.81-.25a3.87,3.87,0,0,1,3.32,1.79A3.18,3.18,0,0,1,218,83.2c-1.66,2.09-3.53,4-6.21,4.7s-4.73,2.44-7.1,3.65c-3.93,2-7.83,4.09-11.58,6.42a31.65,31.65,0,0,0-3.94,2.86,2.65,2.65,0,0,1-2.06.37c-5.9-.15-9.39,2.64-11,8.68C176,110.56,176.12,111.47,175.31,112Z"/><path class="cls-26" d="M175.31,112a21.79,21.79,0,0,1,2.28-6.61,9.57,9.57,0,0,1,8.43-4.61h3.17a20,20,0,0,1,13.59,13.72,60.45,60.45,0,0,1,3,11.52c.55,4.65.21,9.16-2.64,13.23a9.86,9.86,0,0,1-12.46,2.94,23.31,23.31,0,0,1-9.12-7.76A36.13,36.13,0,0,1,175.47,121,28.14,28.14,0,0,1,175.31,112Z"/><path class="cls-28" d="M181.4,151.19a12.72,12.72,0,0,1-9.19-6.73c-.45-1.22.09-2,1.39-1.77a31.08,31.08,0,0,1,11.13,4.79,1.65,1.65,0,0,1,.53,2.27,1.6,1.6,0,0,1-.79.66A7,7,0,0,1,181.4,151.19Z"/><path class="cls-26" d="M116.19,213.7c0,.63-.4.8-.81.92-9.59,3.1-18.87,7-28.19,10.78-2.76,1.12-5.48,2.3-8.22,3.45-.27.11-.53.19-.8.31-.65.3-1.22.32-1.61-.39s.16-1.21.79-1.58c1.73-.83,3.47-1.63,5.22-2.44a221.24,221.24,0,0,1,22.35-8.7c3.22-1.09,6.54-1.85,9.83-2.72C115.25,213.2,115.92,213,116.19,213.7Z"/><path class="cls-29" d="M253.29,149.21a4.6,4.6,0,0,1-3.92-1.22,3.42,3.42,0,0,1-.3-4.83,3,3,0,0,1,.62-.55c2.44-1.54,5.07-2.22,7.86-.71a3.48,3.48,0,0,1,1.7,4.63A3.39,3.39,0,0,1,258,148,6.93,6.93,0,0,1,253.29,149.21Z"/><path class="cls-11" d="M187.88,137.39l-.57-.56c-.59-.7-1.21-1.38-1.84-2.05a18.48,18.48,0,0,1-4.26-10.65c-.15-1.56,0-1.8,1.59-1.65a6.79,6.79,0,0,0,2.83-.4,3.25,3.25,0,0,0,2.25-2.59,6.23,6.23,0,0,0-3.59-6.87c-1.5-.7-1.56-1.12-.39-2.35a7.47,7.47,0,0,1,3.46-2,18.19,18.19,0,0,1,5.51-1,2.07,2.07,0,0,1,1.72.84c.94,1.22,2.57,1.69,3.5,2.94a6.15,6.15,0,0,1,.87,1.22c.4.16.51.5.64.88,1.48,4.25,3.1,8.53,3.59,13,.4,3.66.57,7.47-1.69,10.86-2.5,3.77-5.44,4.43-9.39,3-1-.38-2.3-.54-2.94-1.67C188.69,138.07,188.52,137.4,187.88,137.39Z"/><path class="cls-3" d="M198.1,111.44c-1.22-.92-2.78-1.59-3.52-2.6-1.73-2.32-3.53-.87-5.25-.66a8.27,8.27,0,0,0-5.37,2.44c-.57.65-1,1.08.34,1.54a6.62,6.62,0,0,1,4,7.6c-.55,2.12-2.79,3.41-5.55,3-1.22-.18-1.34,0-1.22,1.22a20.23,20.23,0,0,0,4.28,10.79c-.59.31-.67-.43-1.06-.53-5.64-7.17-8.63-15-6.38-24.28a3.84,3.84,0,0,1,.7-1.71,26.22,26.22,0,0,1,6.68-4.87c6.1-.55,9.64,3.19,12.72,7.68C198.54,111.37,198.41,111.48,198.1,111.44Z"/><path class="cls-30" d="M185.75,103.39c-2.09,1.8-4.44,3.26-6.68,4.88A6.67,6.67,0,0,1,185.75,103.39Z"/><path class="cls-31" d="M184.76,134.24l1.06.53c.57.63,1.36,1.11,1.49,2.06A9.38,9.38,0,0,1,184.76,134.24Z"/><path class="cls-32" d="M198.1,111.44l.37-.37a1.23,1.23,0,0,1,.5,1.22A1.89,1.89,0,0,1,198.1,111.44Z"/><path class="cls-33" d="M187.88,137.39c.84-.28,1,.44,1.31.9A2.29,2.29,0,0,1,187.88,137.39Z"/></g></g><path class="cls-34" d="M183.26,281.89l.26-.38a3.68,3.68,0,0,0,.52-2.58c-.1-1.05-.17-2.11-.19-3.17a2.63,2.63,0,0,0-.16-1.58h0a9.08,9.08,0,0,0-.1-2.9c.1-.8-.17-.95-.59-1-2.5-.45-4.95-.94-7.42-1.43a1,1,0,0,0-1.18.55c-1.29,2.05-2.64,4.07-3.9,6.1a3.13,3.13,0,0,0-.55,2.13c.3,2.87.59,5.74.85,8.62.07.8.28,1,.76,1.08,2.46.2,4.92.44,7.38.66.22.25.52.21.73-.1a21.81,21.81,0,0,0,3.39-5.68h0c.1,0,.2-.11.21-.28v0Z"/><path class="cls-35" d="M178.94,288c-2.47-.23-4.93-.47-7.39-.67-.48,0-.68-.27-.76-1.08-.26-2.88-.56-5.75-.85-8.62a3.16,3.16,0,0,1,.55-2.12c1.3-2,2.63-4,3.9-6.11a1,1,0,0,1,1.18-.54c2.49.48,5,1,7.42,1.42.42,0,.69.24.59,1a2,2,0,0,0-1.93.85,1.42,1.42,0,0,1-2.24-.24c-.48-1.25-1.51-1.6-2.3-.78a2.2,2.2,0,0,0-.35.48c-1,1.42-1.9,2.91-2.93,4.19a5.25,5.25,0,0,0-1,5.14,20,20,0,0,1,.54,3.53c0,1,.5,1.75,1.11,1.71h0c1.44.18,2.87.56,4.3.84C179.5,287.15,179.35,287.54,178.94,288Z"/><path class="cls-35" d="M183.84,275.76c0,1.06.09,2.12.19,3.17a3.64,3.64,0,0,1-.52,2.58l-.26.38h0l-.22.3h0s-1.79,2.3-2.65,3.65a1.46,1.46,0,0,1-1.41.66c-1.33-.28-2.66-.49-4-.78-.37-.08-.84,0-.92-.93-.26-1.85-.54-3.69-.82-5.53a2.19,2.19,0,0,1,.37-1.8c1.22-1.7,2.37-3.5,3.57-5.22a.93.93,0,0,1,1.72,0l0,0a2,2,0,0,0,2.57.65c1.51-.74,1.7-.76,2.18,1.32h0Zm-5.09,8.55c.31,0,.63.18.88-.18a20.64,20.64,0,0,0,2.88-4.21c.45-1.07-.25-2.8-.38-4.24,0-.1,0-.2,0-.31,0-.64-.2-.9-.6-.95-1.08-.17-2.15-.4-3.22-.62a.8.8,0,0,0-.69.52,30.67,30.67,0,0,1-2.1,3c-.78.91-.67,1.89-.58,3.2.18,2.65,1,3.76,2.61,3.52A3.42,3.42,0,0,1,178.75,284.31Z"/><path class="cls-36" d="M183.69,274.21c-.49-2.07-.66-2-2.17-1.31a2,2,0,0,1-2.58-.65.93.93,0,0,0-1.72-.07l0,0c-1.2,1.72-2.35,3.52-3.56,5.21a2.25,2.25,0,0,0-.38,1.81q.44,2.76.83,5.53c.12.84.55.83.92.92,1.33.3,2.66.5,4,.79a1.28,1.28,0,0,0,1.24-.74l2.82-3.57a22,22,0,0,1-3.39,5.69c-.21.3-.51.34-.73.09.41-.46.58-.82-.11-1-1.44-.28-2.86-.66-4.3-.84-.61,0-1.11-.72-1.12-1.71h0a19.13,19.13,0,0,0-.54-3.53,5,5,0,0,1,1-5.14c1.16-1.41,2-2.77,2.94-4.19.63-1.13,1.69-1.24,2.36-.25a2.59,2.59,0,0,1,.29.55,1.41,1.41,0,0,0,2.23.24,2,2,0,0,1,1.94-.85A9.47,9.47,0,0,1,183.69,274.21Z"/><path class="cls-36" d="M178.75,284.31a3.42,3.42,0,0,0-1.24-.27c-1.63.22-2.43-.89-2.61-3.52-.09-1.36-.2-2.29.58-3.2a30.67,30.67,0,0,0,2.1-3,.8.8,0,0,1,.69-.52c1.07.22,2.14.45,3.22.62.4,0,.59.31.6.95,0,.11,0,.21,0,.31.13,1.46.83,3.17.38,4.24a20.64,20.64,0,0,1-2.88,4.21C179.4,284.49,179.1,284.29,178.75,284.31Zm-.28-3.37c.7,0,1.6-1.08,1.61-2s-.33-1.61-.86-1.68a.5.5,0,0,0-.17,0c-.78,0-1.48.86-1.66,2.1,0,1.17.5,1.49,1.11,1.58Z"/><path class="cls-35" d="M178.5,280.94c-.61,0-1.11-.4-1.08-1.58s.87-2.13,1.65-2.1c.53-.09,1,.53,1,1.38a1.41,1.41,0,0,1,0,.29C180.1,279.86,179.19,281,178.5,280.94Z"/></g></g></svg>