<?xml version="1.0"?>
<svg xmlns="http://www.w3.org/2000/svg" viewBox="0 0 26 26" enable-background="new 0 0 26 26">
    <path style="text-indent:0;text-align:start;line-height:normal;text-transform:none;block-progression:tb;-inkscape-font-specification:Bitstream Vera Sans" d="M 3 1 C 2.447 1 2 1.448 2 2 L 2 4 L 4 4 L 4 2 C 4 1.448 3.553 1 3 1 z M 7 1 C 6.447 1 6 1.448 6 2 L 6 4 L 8 4 L 8 2 C 8 1.448 7.553 1 7 1 z M 11 1 C 10.447 1 10 1.448 10 2 L 10 4 L 12 4 L 12 2 C 12 1.448 11.553 1 11 1 z M 15 1 C 14.447 1 14 1.448 14 2 L 14 4 L 16 4 L 16 2 C 16 1.448 15.553 1 15 1 z M 19 1 C 18.447 1 18 1.448 18 2 L 18 4 L 20 4 L 20 2 C 20 1.448 19.553 1 19 1 z M 23 1 C 22.447 1 22 1.448 22 2 L 22 4 L 24 4 L 24 2 C 24 1.448 23.553 1 23 1 z M 0.8125 5 A 1.0001 1.0001 0 0 0 0 6 L 0 20 A 1.0001 1.0001 0 0 0 1 21 L 25 21 A 1.0001 1.0001 0 0 0 26 20 L 26 6 A 1.0001 1.0001 0 0 0 25 5 L 15.09375 5 L 1 5 A 1.0001 1.0001 0 0 0 0.90625 5 A 1.0001 1.0001 0 0 0 0.8125 5 z M 2 7 L 15.09375 7 L 24 7 L 24 19 L 2 19 L 2 7 z M 13.0625 8.90625 C 11.5045 8.90625 9.84375 10.103 9.84375 13.125 C 9.84375 15.41 10.816 17.0625 12.875 17.0625 C 13.41 17.0625 13.8365 16.982 14.0625 16.875 L 13.90625 15.5625 C 13.71625 15.6215 13.41825 15.6875 13.15625 15.6875 C 12.20425 15.6875 11.5 14.94725 11.5 13.03125 C 11.5 11.04425 12.27525 10.28125 13.15625 10.28125 C 13.50125 10.28125 13.72825 10.3545 13.90625 10.4375 L 14.15625 9.125 C 14.00125 9.03 13.6085 8.90625 13.0625 8.90625 z M 17.59375 8.9375 C 16.97475 8.9375 16.393 8.99875 16 9.09375 L 16 16.96875 C 16.31 17.00475 16.8125 17.0625 17.3125 17.0625 C 18.4185 17.0625 19.203 16.79225 19.75 16.28125 C 20.451 15.66325 20.84375 14.52425 20.84375 12.90625 C 20.84375 11.34725 20.5035 10.27525 19.8125 9.65625 C 19.3015 9.18025 18.60475 8.9375 17.59375 8.9375 z M 5 9 L 5 17 L 8.59375 17 L 8.59375 15.6875 L 6.5625 15.6875 L 6.5625 9 L 5 9 z M 17.875 10.1875 C 18.816 10.1875 19.25 11.20275 19.25 12.84375 C 19.25 15.05675 18.59275 15.78125 17.84375 15.78125 C 17.76075 15.78125 17.6455 15.80525 17.5625 15.78125 L 17.5625 10.21875 C 17.6575 10.18275 17.768 10.1875 17.875 10.1875 z M 2 22 L 2 24 C 2 24.552 2.447 25 3 25 C 3.553 25 4 24.552 4 24 L 4 22 L 2 22 z M 6 22 L 6 24 C 6 24.552 6.447 25 7 25 C 7.553 25 8 24.552 8 24 L 8 22 L 6 22 z M 10 22 L 10 24 C 10 24.552 10.447 25 11 25 C 11.553 25 12 24.552 12 24 L 12 22 L 10 22 z M 14 22 L 14 24 C 14 24.552 14.447 25 15 25 C 15.553 25 16 24.552 16 24 L 16 22 L 14 22 z M 18 22 L 18 24 C 18 24.552 18.447 25 19 25 C 19.553 25 20 24.552 20 24 L 20 22 L 18 22 z M 22 22 L 22 24 C 22 24.552 22.447 25 23 25 C 23.553 25 24 24.552 24 24 L 24 22 L 22 22 z" overflow="visible" enable-background="accumulate" font-family="Bitstream Vera Sans"/>
</svg>
