<svg xmlns="http://www.w3.org/2000/svg" viewBox="0 0 277.3 52.8">
    <defs>
        <style>.cls-1{fill:#ffe11a;}.cls-2{fill:#fff;}.cls-3{fill:#ff3838;}</style>
    </defs>
    <title>codepku-logo</title>
    <g id="layer-2" data-name="layer-2">
        <g id="layer-1" data-name="layer-1">
            <path id="_复合路径_" data-name="&lt;复合路径&gt;" class="cls-1" d="M49.11,8.27h-5l-1.87,2.1h-7.9L32.57,8.27H28L17.51,26.4,28,44.53H49.11L59.65,26.4ZM46,38.8H31.24L23.86,26.4l7.38-13H46l7.35,13Z"/>
            <polygon id="path_1" data-name="&lt;路径&gt;" class="cls-2" points="14.55 26.39 26.48 5.72 33.77 5.72 35.49 7.81 41.07 7.81 42.94 5.72 49.45 5.72 45.88 0 15.29 0 0 26.4 15.29 52.8 46.14 52.8 49.46 47.07 26.48 47.07 14.55 26.39"/>
            <circle id="path_2" data-name="&lt;路径&gt;" class="cls-3" cx="38.58" cy="26.4" r="5.01"/>
            <path class="cls-2" d="M68.86,15.88,76,2.73h8.35L77.21,16.3h1.88L81,13.37h8.35L79.51,32h8.14v7.31H65.86l4.25-6.48,5.64-9.18H64.58Zm18.37,34H64.58L70.11,43H87.23ZM99.34,2.73h9V4.61h9.19V18.39q.21,5-5,4.59H97.67v3.13h19.42V46.36q0,3.55-4,3.55H110.2v-4.8c1,.14,1.46-.21,1.46-1V43h-2.5v6.89h-4.6V43h-2.5v6.89H97.47V43H95v6.89H89.53V31.75H88.28V24.86c1,.28,1.39-.21,1.25-1.46V4.61h9.81ZM95,37h2.51V32.79H95ZM97.67,16.3H109q.42,0,.63-.63V11.5H97.67ZM102.06,37h2.5V32.79h-2.5Zm7.1,0h2.5V32.79h-2.5Z"/>
            <path class="cls-2" d="M123.69,8.5V2.73h19.78V8.5h-6.39V23.33h6.19v6h-6.19v15h6.39v5.56H119.23l4.26-5.56h6.8v-15h-9.08l2.69-5.77h6.39V8.5Zm20.2,10.09h25.75l3,5.77h-6.5V42.91c0,1.1.34,1.58,1,1.44h2.47v5.36h-5.77q-5.15.2-4.74-4.54V24.36h-3.5L153,46.2c-.55,2.34-1.92,3.57-4.12,3.71h-4.12V44.35H146c.54.14.82-.28.82-1.24l2.06-18.75h-4.94Zm.82-10.1V2.73H169l2.35,5.76Z"/>
            <path class="cls-2" d="M177.06,24.25V16H187.2V35.83q1.44,5.81,7.86,6.83h29L228,49.9h-32.9a13.2,13.2,0,0,1-8.27-3.31c-1.8,2.35-6.65,3.45-9,3.31h-3.93l2.78-6.62h1.45c.83,0,1.25-.48,1.25-1.45V24.25Zm1.86-21.52h8.69V12h-8.69Zm12.21,10.34V5.62h7.45l.62-2.89h8.48l-.41,2.89h16.55V33.76q.21,6.21-6,5.8h-8.27V32.32h5.37a.56.56,0,0,0,.63-.63V13.07h-9.73l-4.34,22.14q-.84,4.35-5.59,4.14h-5v-7h1.66c1,.13,1.51-.35,1.65-1.45l3.31-17.8Z"/>
            <path class="cls-2" d="M228,15.5V6.64h3.71l-1.24-3.91h9.07l1.44,3.91h5.36l-1.65-3.91h9.69l1.85,3.91h5.56l1.65-3.91h9.48l-1.64,3.91h6.06l-3.8,8.45h-8V13H235.17V15.5Zm1.24,1.44h44.09v4.74L263,28.9v.82h10.55l3.76,6.18H263V46c-.41,2.33-1.65,3.64-3.71,3.91H230.21l2.08-5.77h21.43q1.23.21,1.23-1.23v-7H228.37V29.72H255v-3.3l4.95-3.29H229.2Z"/>
        </g>
    </g>
</svg>
