<svg id="图层_1" data-name="图层 1" xmlns="http://www.w3.org/2000/svg" width="20" height="20" viewBox="0 0 20 20"><defs><style>.cls-1{fill:#fff;}</style></defs><title>头像_画板 1</title><path class="cls-1" d="M15.69,6C15,3.61,12.46,7.68,12.46,7.68l.42-.86a2.25,2.25,0,0,0-1.36,0,1,1,0,0,0,.12-.28.84.84,0,0,1,.56-.61,2.06,2.06,0,0,0-1.13.39,2.89,2.89,0,0,1-1,.41c-.68.14-.42,0-.77.28a1.42,1.42,0,0,0,.25-.74C9.6,5,9,4.58,7.83,5.46c-.76.55-6,3.35-4.11,9.05,0,0-.72.19-.56,1.25S5.44,19,10,18.3C14.88,17.54,17.09,11.12,15.69,6ZM7.16,15a1.42,1.42,0,0,1-1.32-.82c0-.21.49-.52,1.17-.59s1.25.12,1.27.33A1.44,1.44,0,0,1,7.16,15ZM11,13.75c-1.64.13-.89-.38-3-.77-1.45-.27-1.35.07-2.76.65-.59.24-1.46.28-1.63-1.18a6.17,6.17,0,0,1,.5-2.35s1.29-2.69,7-1.17C14.4,9.83,12.77,13.6,11,13.75Z"/><rect class="cls-1" x="14.88" y="2.42" width="5.12" height="1.28" rx="0.64" ry="0.64"/><rect class="cls-1" x="14.88" y="2.42" width="5.12" height="1.28" rx="0.64" ry="0.64" transform="translate(20.5 -14.38) rotate(90)"/></svg>